<?xml version="1.0" encoding="utf-8"?>
<!-- Generator: Adobe Illustrator 20.0.0, SVG Export Plug-In . SVG Version: 6.00 Build 0)  -->
<svg version="1.1" id="Слой_1_2_" xmlns="http://www.w3.org/2000/svg" xmlns:xlink="http://www.w3.org/1999/xlink" x="0px"
	 y="0px" viewBox="0 0 160 160" style="enable-background:new 0 0 160 160;" xml:space="preserve">
<style type="text/css">
	.st0{fill:#00ACAA;}
	.st1{fill:#FFFFFF;}
</style>
<g>
	<g id="Эллипс">
		<g>
			<circle class="st0" cx="80" cy="80" r="80"/>
		</g>
	</g>
	<g id="Составная_фигура">
		<g>
			<path class="st0" d="M57,50v45h55V50H57z M85,92h-2v-2h2V92z M103,91h-1v-1h1V91z M106,91h-1v-1h1V91z M109,91h-1v-1h1V91z
				 M109,87H60V53h49V87z"/>
		</g>
	</g>
	<g id="Совмещенный_контур">
		<g>
			<path class="st1" d="M112,95V50H57v45h24v5h-2v2h10v-2h-2v-5H112z M103,91h-1v-1h1V91z M106,91h-1v-1h1V91z M109,91h-1v-1h1V91z
				 M85,92h-2v-2h2V92z M60,87V53h49v34H60z"/>
		</g>
	</g>
	<g id="Контур">
		<g>
			<rect x="47" y="77" class="st0" width="25" height="35"/>
		</g>
	</g>
	<g id="Составная_фигура_1_">
		<g>
			<path class="st1" d="M47,77v35h25V77H47z M61,110h-2v-2h2V110z M70,106H49V79h21V106z"/>
		</g>
	</g>
	<g id="Контур_1_">
		<g>
			<rect x="91" y="83" class="st0" width="15" height="25"/>
		</g>
	</g>
	<g id="Составная_фигура_2_">
		<g>
			<path class="st1" d="M91,83v25h15V83H91z M99,107h-1v-1h1V107z M105,105H92V84h13V105z"/>
		</g>
	</g>
	<path class="st1" d="M80,11c38,0,69,31,69,69s-31,69-69,69s-69-31-69-69S42,11,80,11 M80,10c-38.7,0-70,31.3-70,70s31.3,70,70,70
		s70-31.3,70-70S118.7,10,80,10L80,10z"/>
</g>
</svg>
