<?xml version="1.0" encoding="utf-8"?>
<!-- Generator: Adobe Illustrator 20.0.0, SVG Export Plug-In . SVG Version: 6.00 Build 0)  -->
<svg version="1.1" id="Слой_1" xmlns="http://www.w3.org/2000/svg" xmlns:xlink="http://www.w3.org/1999/xlink" x="0px" y="0px"
	 viewBox="0 0 321.1 100" style="enable-background:new 0 0 321.1 100;" xml:space="preserve">
<style type="text/css">
	.st0{fill:#FFFFFF;}
	.st1{fill:#878786;}
	.st2{fill:#50ABA8;}
	.st3{fill:#161718;}
</style>
<g>
	<g>
		<g>
			<path class="st0" d="M143.4,28.9c1.4,1.3,2,3.2,2,5.6c0,2.9-0.8,5.1-2.5,6.7c-1.7,1.6-4,2.4-7,2.4h-3v1l0.2,8h-3.2l0.2-7.7
				L129.8,27l7.8,0C140.1,27,142,27.6,143.4,28.9z M142.2,34.8c0-3.3-1.8-5-5.3-5.2l-3.9,0.1L132.9,41l4.2,0.1
				C140.5,40.5,142.2,38.4,142.2,34.8z"/>
			<path class="st0" d="M155.8,52.6h-3.2l0.2-7.7L152.6,27h3.3l-0.2,17.6L155.8,52.6z"/>
			<path class="st0" d="M178,28l-0.5,3.1l-0.6,0.2c-1.6-1.2-3.3-1.8-5-1.8c-1,0-1.8,0.2-2.6,0.6c-0.7,0.4-1.3,0.9-1.7,1.6
				c-0.4,0.6-0.6,1.3-0.6,2c0,0.7,0.2,1.4,0.7,1.9c0.4,0.5,1,1,1.7,1.4c0.7,0.4,1.6,0.9,2.7,1.4c1.4,0.7,2.6,1.3,3.5,1.9
				c0.9,0.6,1.6,1.3,2.3,2.2c0.6,0.9,0.9,1.9,0.9,3.2c0,1.3-0.4,2.6-1.1,3.7c-0.7,1.1-1.7,2-3,2.7s-2.8,1-4.5,1
				c-2.5,0-4.7-0.6-6.9-1.8l0.4-3.3l0.4-0.2c0.9,0.9,2,1.6,3.1,2c1.1,0.4,2.2,0.7,3.3,0.7c1,0,1.9-0.2,2.7-0.6
				c0.8-0.4,1.4-0.9,1.8-1.6c0.4-0.7,0.6-1.4,0.6-2.1c0-1.1-0.4-2-1.3-2.7c-0.9-0.7-2.1-1.4-3.9-2.2c-1.4-0.7-2.5-1.3-3.4-1.9
				c-0.9-0.5-1.6-1.3-2.2-2.1c-0.6-0.9-0.9-1.9-0.9-3.2c0-1.3,0.4-2.5,1.1-3.6c0.7-1.1,1.7-2,3-2.6c1.3-0.6,2.7-0.9,4.3-0.9
				C174.1,26.8,176,27.2,178,28z"/>
			<path class="st0" d="M194.2,52.6H191l0.2-7.5l0-1.7L183,27h3.4l0.5,1.4l5.6,11.5h0.3l6.1-11.4l0.6-1.5h3.4l-8.9,16.4l0,1.7
				L194.2,52.6z"/>
			<path class="st0" d="M221.9,28l-0.5,3.1l-0.6,0.2c-1.6-1.2-3.3-1.8-5-1.8c-1,0-1.8,0.2-2.6,0.6c-0.7,0.4-1.3,0.9-1.7,1.6
				c-0.4,0.6-0.6,1.3-0.6,2c0,0.7,0.2,1.4,0.7,1.9c0.4,0.5,1,1,1.7,1.4c0.7,0.4,1.6,0.9,2.7,1.4c1.4,0.7,2.6,1.3,3.5,1.9
				c0.9,0.6,1.6,1.3,2.3,2.2c0.6,0.9,0.9,1.9,0.9,3.2c0,1.3-0.4,2.6-1.1,3.7c-0.7,1.1-1.7,2-3,2.7c-1.3,0.7-2.8,1-4.5,1
				c-2.5,0-4.7-0.6-6.9-1.8l0.4-3.3l0.4-0.2c0.9,0.9,2,1.6,3.1,2c1.1,0.4,2.2,0.7,3.3,0.7c1,0,1.9-0.2,2.7-0.6
				c0.8-0.4,1.4-0.9,1.8-1.6c0.4-0.7,0.6-1.4,0.6-2.1c0-1.1-0.4-2-1.3-2.7c-0.9-0.7-2.1-1.4-3.9-2.2c-1.4-0.7-2.5-1.3-3.4-1.9
				c-0.9-0.5-1.6-1.3-2.2-2.1c-0.6-0.9-0.9-1.9-0.9-3.2c0-1.3,0.4-2.5,1.1-3.6c0.7-1.1,1.7-2,3-2.6c1.3-0.6,2.7-0.9,4.3-0.9
				C218,26.8,219.9,27.2,221.9,28z"/>
			<path class="st0" d="M244.2,29.8l-4.5-0.2h-2.6L237,44.6l0.1,8h-3.2l0.2-7.7L234,29.6h-2.6l-4.6,0.2l-0.2-0.3l0.2-2.5h17.4
				l0.2,0.3L244.2,29.8z"/>
			<path class="st0" d="M265.4,52.6H251l0.2-7.7L251,27h14.4l0.2,0.3l-0.2,2.5l-6-0.1l-5.1,0.1l-0.1,8.4l4.8,0.1l4.2-0.1l0.2,0.3
				l-0.3,2.5l-4.5-0.1l-4.6,0l0,3.8l0.1,5.3l5.1,0l6.2-0.2l0.2,0.3L265.4,52.6z"/>
			<path class="st0" d="M294.8,52.6l-0.6-7.8l-1.4-12.8h-0.3l-7.1,17.6h-2.6l-6.8-17.6h-0.3l-1.4,12.5l-0.7,8H271l2.7-25.6h3.6
				l1.3,3.9l5.6,14.6h0.2l5.8-14.8l1.3-3.7h3.6l2.5,25.6H294.8z"/>
			<path class="st0" d="M318.6,28l-0.5,3.1l-0.6,0.2c-1.6-1.2-3.3-1.8-5-1.8c-1,0-1.8,0.2-2.6,0.6c-0.7,0.4-1.3,0.9-1.7,1.6
				c-0.4,0.6-0.6,1.3-0.6,2c0,0.7,0.2,1.4,0.7,1.9c0.4,0.5,1,1,1.7,1.4c0.7,0.4,1.6,0.9,2.7,1.4c1.4,0.7,2.6,1.3,3.5,1.9
				c0.9,0.6,1.6,1.3,2.3,2.2c0.6,0.9,0.9,1.9,0.9,3.2c0,1.3-0.4,2.6-1.1,3.7c-0.7,1.1-1.7,2-3,2.7c-1.3,0.7-2.8,1-4.5,1
				c-2.5,0-4.7-0.6-6.9-1.8l0.4-3.3l0.4-0.2c0.9,0.9,2,1.6,3.1,2c1.1,0.4,2.2,0.7,3.3,0.7c1,0,1.9-0.2,2.7-0.6
				c0.8-0.4,1.4-0.9,1.8-1.6c0.4-0.7,0.6-1.4,0.6-2.1c0-1.1-0.4-2-1.3-2.7c-0.9-0.7-2.1-1.4-3.9-2.2c-1.4-0.7-2.5-1.3-3.4-1.9
				c-0.9-0.5-1.6-1.3-2.2-2.1c-0.6-0.9-0.9-1.9-0.9-3.2c0-1.3,0.4-2.5,1.1-3.6c0.7-1.1,1.7-2,3-2.6c1.3-0.6,2.7-0.9,4.3-0.9
				C314.7,26.8,316.6,27.2,318.6,28z"/>
		</g>
		<g>
			<path class="st1" d="M131.4,73.9H130V62.1h3.3c0.5,0,0.9,0,1.3,0.1c0.4,0.1,0.8,0.1,1.1,0.3c0.7,0.3,1.2,0.6,1.6,1.1
				c0.4,0.5,0.5,1.1,0.5,1.9c0,0.6-0.1,1.1-0.4,1.6c-0.2,0.5-0.6,0.8-1,1.1c-0.5,0.3-1,0.5-1.6,0.7c-0.6,0.2-1.4,0.2-2.2,0.2
				c-0.4,0-0.8,0-1.2-0.1V73.9z M131.4,67.7c0.2,0,0.4,0,0.6,0.1c0.2,0,0.4,0,0.6,0c0.7,0,1.2-0.1,1.7-0.2s0.9-0.3,1.2-0.5
				c0.3-0.2,0.5-0.4,0.7-0.7c0.1-0.3,0.2-0.6,0.2-1c0-0.5-0.1-0.8-0.3-1.1c-0.2-0.3-0.5-0.5-0.9-0.7c-0.3-0.1-0.5-0.2-0.9-0.2
				c-0.3,0-0.7-0.1-1.1-0.1h-1.7V67.7z"/>
			<path class="st1" d="M141.7,72.6h6v1.3h-7.5V62.1h7.1v1.3h-5.7v3.8h5.1v1.3h-5.1V72.6z"/>
			<path class="st1" d="M163.7,73.9h-13.5V62.1h1.4v10.5h4.6V62.1h1.4v10.5h4.6V62.1h1.4V73.9z"/>
			<path class="st1" d="M168.1,72.6h6v1.3h-7.5V62.1h7.1v1.3h-5.7v3.8h5.1v1.3h-5.1V72.6z"/>
			<path class="st1" d="M178,67.2h6.2v-5.1h1.4v11.8h-1.4v-5.4H178v5.4h-1.4V62.1h1.4V67.2z"/>
			<path class="st1" d="M196.7,62.1h1.4v11.8h-1.4v-5.3c0-1.9,0-3.4,0.1-4.4h-0.1c-0.5,0.8-1.2,1.9-2.1,3.2l-4.6,6.6h-1.4V62.1h1.4
				v5.9c0,1.5,0,2.8-0.1,3.8h0.1c0.5-0.8,1.2-1.9,2.1-3.2L196.7,62.1z"/>
			<path class="st1" d="M202.6,72.6h6v1.3h-7.5V62.1h7.1v1.3h-5.7v3.8h5.1v1.3h-5.1V72.6z"/>
			<path class="st1" d="M216.1,72.6h6v1.3h-7.5V62.1h7.1v1.3h-5.7v3.8h5.1v1.3h-5.1V72.6z"/>
			<path class="st1" d="M230.3,63.2c-0.7,0-1.3,0.1-1.8,0.3c-0.6,0.2-1.1,0.5-1.5,0.9c-0.4,0.4-0.8,0.9-1,1.5
				c-0.2,0.6-0.4,1.3-0.4,2.1c0,0.8,0.1,1.5,0.3,2.1c0.2,0.6,0.5,1.1,1,1.5c0.4,0.4,0.9,0.7,1.5,0.9s1.2,0.3,2,0.3
				c0.2,0,0.4,0,0.6,0c0.2,0,0.4,0,0.7-0.1c0.2,0,0.4-0.1,0.6-0.1c0.2,0,0.4-0.1,0.6-0.2v1.3c-0.3,0.1-0.7,0.2-1.2,0.3
				c-0.5,0.1-0.9,0.1-1.4,0.1c-1,0-1.8-0.1-2.6-0.4c-0.8-0.3-1.4-0.7-1.9-1.2c-0.5-0.5-0.9-1.1-1.2-1.9c-0.3-0.7-0.4-1.6-0.4-2.5
				c0-0.9,0.1-1.8,0.4-2.5c0.3-0.8,0.7-1.4,1.2-2c0.5-0.6,1.2-1,1.9-1.3c0.7-0.3,1.6-0.5,2.5-0.5c0.2,0,0.5,0,0.7,0
				c0.2,0,0.5,0,0.7,0.1c0.2,0,0.4,0.1,0.6,0.1c0.2,0.1,0.3,0.1,0.5,0.2v1.3c-0.4-0.1-0.7-0.2-1.2-0.3
				C231.1,63.2,230.7,63.2,230.3,63.2z"/>
			<path class="st1" d="M239.4,73.9H238V63.4h-3.9v-1.3h9.3v1.3h-3.9V73.9z"/>
			<path class="st1" d="M246.6,66.8c0.3,0,0.5,0,0.7,0c0.1,0,0.3,0,0.4,0c0.2,0,0.3,0,0.5,0c0.4,0,0.8,0,1.1,0c0.3,0,0.7,0.1,1,0.1
				c0.6,0.1,1.1,0.2,1.5,0.4c0.4,0.2,0.7,0.4,1,0.7c0.3,0.3,0.5,0.6,0.6,1s0.2,0.7,0.2,1.2c0,0.3,0,0.6-0.1,1
				c-0.1,0.3-0.2,0.7-0.4,1c-0.2,0.3-0.5,0.6-0.9,0.8c-0.4,0.3-0.8,0.5-1.3,0.6c-0.3,0.1-0.7,0.2-1.2,0.2c-0.5,0.1-1,0.1-1.6,0.1
				h-2.8V62.1h1.4V66.8z M246.6,72.6h1.5c0.6,0,1.1,0,1.5-0.1c0.4-0.1,0.8-0.2,1.1-0.3c0.3-0.1,0.5-0.3,0.7-0.4
				c0.2-0.2,0.3-0.3,0.4-0.5c0.1-0.2,0.2-0.4,0.2-0.5c0-0.2,0-0.3,0-0.5c0-0.3,0-0.5-0.1-0.7c-0.1-0.2-0.2-0.4-0.4-0.6
				c-0.2-0.2-0.4-0.3-0.7-0.5c-0.3-0.1-0.6-0.2-1-0.3c-0.2,0-0.5-0.1-0.8-0.1c-0.3,0-0.6,0-0.9,0c-0.1,0-0.3,0-0.4,0
				c-0.1,0-0.3,0-0.4,0c-0.1,0-0.4,0-0.7,0.1V72.6z"/>
			<path class="st1" d="M265.3,67.8c0.4,0.1,0.7,0.1,1,0.3c0.3,0.1,0.5,0.3,0.7,0.5c0.2,0.2,0.4,0.5,0.5,0.8c0.1,0.3,0.2,0.6,0.2,1
				c0,0.3,0,0.6-0.1,0.9c-0.1,0.3-0.2,0.6-0.4,0.9c-0.2,0.3-0.4,0.5-0.7,0.8c-0.3,0.2-0.7,0.4-1.1,0.6c-0.3,0.1-0.7,0.2-1.2,0.2
				c-0.4,0-0.9,0.1-1.5,0.1h-3V62.1h2.9c0.3,0,0.5,0,0.7,0c0.2,0,0.4,0,0.6,0c0.2,0,0.4,0,0.5,0.1c0.2,0,0.3,0.1,0.4,0.1
				c0.4,0.1,0.7,0.2,1,0.4c0.3,0.2,0.6,0.4,0.8,0.6c0.2,0.2,0.4,0.5,0.5,0.8c0.1,0.3,0.2,0.6,0.2,1c0,0.3,0,0.6-0.1,0.8
				c-0.1,0.3-0.2,0.5-0.3,0.7c-0.1,0.2-0.3,0.4-0.6,0.6C265.9,67.5,265.6,67.6,265.3,67.8L265.3,67.8z M263.2,67.2
				c0.3,0,0.5,0,0.7,0c0.2,0,0.4-0.1,0.6-0.1c0.4-0.1,0.8-0.4,1-0.7c0.2-0.3,0.3-0.7,0.3-1.1c0-0.4-0.1-0.8-0.3-1.1
				c-0.2-0.3-0.5-0.5-1-0.6c-0.2-0.1-0.5-0.1-0.8-0.1c-0.3,0-0.6,0-1,0H261v3.8H263.2z M261,68.5v4.1h1.7c0.4,0,0.8,0,1.1-0.1
				c0.4,0,0.7-0.1,0.9-0.2c0.3-0.1,0.5-0.2,0.7-0.3c0.2-0.1,0.3-0.3,0.5-0.5c0.1-0.2,0.2-0.3,0.2-0.5c0-0.2,0.1-0.4,0.1-0.6
				c0-0.2,0-0.4-0.1-0.6c-0.1-0.2-0.1-0.4-0.3-0.5c-0.1-0.2-0.3-0.3-0.5-0.4c-0.2-0.1-0.4-0.2-0.7-0.3c-0.2,0-0.4-0.1-0.6-0.1
				c-0.2,0-0.5,0-0.8,0H261z"/>
			<path class="st1" d="M275.9,63.2c-0.7,0-1.3,0.1-1.8,0.3c-0.6,0.2-1.1,0.5-1.5,0.9c-0.4,0.4-0.8,0.9-1,1.5
				c-0.2,0.6-0.4,1.3-0.4,2.1c0,0.8,0.1,1.5,0.3,2.1c0.2,0.6,0.5,1.1,1,1.5c0.4,0.4,0.9,0.7,1.5,0.9c0.6,0.2,1.2,0.3,2,0.3
				c0.2,0,0.4,0,0.6,0c0.2,0,0.4,0,0.7-0.1c0.2,0,0.4-0.1,0.6-0.1c0.2,0,0.4-0.1,0.6-0.2v1.3c-0.3,0.1-0.7,0.2-1.2,0.3
				c-0.5,0.1-0.9,0.1-1.4,0.1c-1,0-1.8-0.1-2.6-0.4c-0.8-0.3-1.4-0.7-1.9-1.2c-0.5-0.5-0.9-1.1-1.2-1.9c-0.3-0.7-0.4-1.6-0.4-2.5
				c0-0.9,0.1-1.8,0.4-2.5c0.3-0.8,0.7-1.4,1.2-2c0.5-0.6,1.2-1,1.9-1.3c0.7-0.3,1.6-0.5,2.5-0.5c0.2,0,0.5,0,0.7,0
				c0.2,0,0.5,0,0.7,0.1c0.2,0,0.4,0.1,0.6,0.1c0.2,0.1,0.3,0.1,0.5,0.2v1.3c-0.4-0.1-0.7-0.2-1.2-0.3
				C276.8,63.2,276.4,63.2,275.9,63.2z"/>
			<path class="st1" d="M282.3,72.6h6v1.3h-7.5V62.1h7.1v1.3h-5.7v3.8h5.1v1.3h-5.1V72.6z"/>
			<path class="st1" d="M290.7,73.9V62.1h7.5v1.3h-6.1v10.5H290.7z"/>
			<path class="st1" d="M298,72.6c0.5-0.6,0.9-1.3,1.4-2c0.4-0.7,0.8-1.5,1.1-2.3c0.3-0.8,0.6-1.8,0.9-2.8s0.4-2.1,0.6-3.3h5.4v10.5
				h1.4v5.2h-1.4v-3.9h-8.5v3.9h-1.4v-5.2H298z M303.4,63.4c-0.1,1-0.3,2-0.6,2.8c-0.2,0.8-0.5,1.6-0.9,2.4
				c-0.3,0.7-0.7,1.4-1.1,2.1c-0.4,0.6-0.9,1.3-1.3,1.9v0h6.5v-9.2H303.4z"/>
			<path class="st1" d="M310.3,73.9l4.8-11.8h1.2l4.8,11.8h-1.6l-1.4-3.5h-4.9l-1.4,3.5H310.3z M315.7,63.9c-0.5,1.5-1,2.8-1.5,4
				l-0.4,1.1h3.9l-0.4-1.1C316.7,66.7,316.2,65.4,315.7,63.9L315.7,63.9z"/>
		</g>
	</g>
	<circle class="st0" cx="50" cy="50" r="50"/>
	<path class="st2" d="M90.5,10.3v81h-81v-81H90.5 M92.5,8.3h-85v85h85V8.3L92.5,8.3z"/>
	<g>
		<path class="st3" d="M41.8,60.3l-0.4-0.5c1.2-3,2.8-8.1,4.7-15.2l0.2-0.7c-2.6,0-4.3,0.3-5.1,1c-0.8,0.6-1.3,1.9-1.5,3.9L39,48.4
			c0-2.2,0.1-3.7,0.3-4.6c0.2-0.9,0.5-1.5,0.9-1.9c0.4-0.4,1.2-0.6,2.3-0.6l4.6,0.1c1.6,0,3.4,0.1,5.2,0.1c4.3,0,7.6-0.1,9.7-0.3
			l-0.9,2.1l-3.2,0.6c-1,2.9-1.5,5.4-1.5,7.6c0,1.5,0.2,2.8,0.6,4c0.4,1.2,0.8,1.9,1.3,2.4c0.5,0.4,1,0.7,1.6,0.7
			c0.4,0,0.8-0.1,1.1-0.2c0.3-0.1,0.8-0.5,1.4-0.9l0.1,0.6c-0.8,0.8-1.5,1.5-2.3,1.9c-0.7,0.4-1.5,0.6-2.4,0.6
			c-0.7,0-1.3-0.1-1.8-0.4c-0.5-0.3-1-0.8-1.4-1.5c-0.4-0.7-0.7-1.5-0.9-2.4c-0.2-0.9-0.3-1.8-0.3-2.7c0-2.8,0.8-6.1,2.5-9.7h-8.6
			c-1.4,5.3-2.4,10.4-3,15.5C43.5,59.6,42.6,60,41.8,60.3z"/>
	</g>
</g>
</svg>
