<?xml version="1.0" encoding="utf-8"?>
<!-- Generator: Adobe Illustrator 20.0.0, SVG Export Plug-In . SVG Version: 6.00 Build 0)  -->
<svg version="1.1" id="Слой_1_2_" xmlns="http://www.w3.org/2000/svg" xmlns:xlink="http://www.w3.org/1999/xlink" x="0px"
	 y="0px" viewBox="0 0 160.5 113.4" style="enable-background:new 0 0 160.5 113.4;" xml:space="preserve">
<style type="text/css">
	.st0{enable-background:new    ;}
	.st1{fill:#FFFFFF;}
	.st2{fill:#868685;}
	.st3{fill:#00ADAA;enable-background:new    ;}
	.st4{fill:#141516;}
</style>
<g>
	<g id="WEB-РАЗРАБОТКА__И_ИН_1_">
		<g class="st0">
			<path class="st1" d="M15.2,84c-0.1,0.3-0.2,0.8-0.4,1.6l-1,3.9H13l-2-6.6h0.8l1.1,3.9c0.2,0.6,0.3,1.2,0.5,1.7h0
				c0.1-0.3,0.1-0.6,0.2-0.9s0.1-0.5,0.2-0.8l1-3.9h0.8l1,3.9c0.2,0.9,0.4,1.5,0.4,1.7h0c0.1-0.5,0.3-1,0.5-1.7l1.1-3.9h0.8l-2,6.6
				h-0.8l-1-3.9C15.4,84.9,15.3,84.4,15.2,84L15.2,84z"/>
		</g>
		<g class="st0">
			<path class="st1" d="M21.9,88.8h3.4v0.7h-4.2v-6.6h4v0.7h-3.2v2.1h2.9v0.7h-2.9V88.8z"/>
		</g>
		<g class="st0">
			<path class="st1" d="M30.9,86.1c0.2,0,0.4,0.1,0.6,0.2c0.2,0.1,0.3,0.2,0.4,0.3c0.1,0.1,0.2,0.3,0.3,0.4c0.1,0.2,0.1,0.4,0.1,0.6
				c0,0.2,0,0.3-0.1,0.5c0,0.2-0.1,0.3-0.2,0.5c-0.1,0.2-0.2,0.3-0.4,0.4c-0.2,0.1-0.4,0.2-0.6,0.3c-0.2,0.1-0.4,0.1-0.7,0.1
				c-0.2,0-0.5,0-0.9,0h-1.7v-6.6h1.6c0.2,0,0.3,0,0.4,0c0.1,0,0.2,0,0.3,0s0.2,0,0.3,0c0.1,0,0.2,0,0.3,0.1
				c0.2,0.1,0.4,0.1,0.6,0.2c0.2,0.1,0.3,0.2,0.4,0.3s0.2,0.3,0.3,0.5c0.1,0.2,0.1,0.4,0.1,0.6c0,0.2,0,0.3-0.1,0.5
				c0,0.1-0.1,0.3-0.2,0.4c-0.1,0.1-0.2,0.2-0.3,0.3S31.1,86,30.9,86.1L30.9,86.1z M29.7,85.8c0.2,0,0.3,0,0.4,0
				c0.1,0,0.2,0,0.3-0.1c0.2-0.1,0.4-0.2,0.5-0.4c0.1-0.2,0.2-0.4,0.2-0.6c0-0.2-0.1-0.4-0.2-0.6c-0.1-0.2-0.3-0.3-0.6-0.3
				c-0.1,0-0.3-0.1-0.4-0.1c-0.2,0-0.4,0-0.6,0h-0.9v2.1H29.7z M28.5,86.5v2.3h1c0.2,0,0.4,0,0.6,0c0.2,0,0.4-0.1,0.5-0.1
				c0.2,0,0.3-0.1,0.4-0.2c0.1-0.1,0.2-0.2,0.3-0.3s0.1-0.2,0.1-0.3c0-0.1,0-0.2,0-0.3c0-0.1,0-0.2,0-0.4c0-0.1-0.1-0.2-0.1-0.3
				c-0.1-0.1-0.2-0.2-0.3-0.2s-0.3-0.1-0.4-0.2c-0.1,0-0.2,0-0.3,0c-0.1,0-0.3,0-0.5,0H28.5z"/>
		</g>
		<g class="st0">
			<path class="st1" d="M33.9,86.7h2.2v0.7h-2.2V86.7z"/>
		</g>
		<g class="st0">
			<path class="st1" d="M38.4,89.5h-0.8v-6.6h1.8c0.3,0,0.5,0,0.8,0c0.2,0,0.4,0.1,0.6,0.2c0.4,0.1,0.7,0.4,0.9,0.6s0.3,0.6,0.3,1
				c0,0.3-0.1,0.6-0.2,0.9c-0.1,0.3-0.3,0.5-0.6,0.6c-0.3,0.2-0.6,0.3-0.9,0.4c-0.4,0.1-0.8,0.1-1.2,0.1c-0.2,0-0.5,0-0.7,0V89.5z
				 M38.4,86.1c0.1,0,0.2,0,0.3,0c0.1,0,0.2,0,0.3,0c0.4,0,0.7,0,1-0.1c0.3-0.1,0.5-0.1,0.7-0.3s0.3-0.3,0.4-0.4
				c0.1-0.2,0.1-0.3,0.1-0.6c0-0.3-0.1-0.5-0.2-0.6c-0.1-0.2-0.3-0.3-0.5-0.4c-0.1-0.1-0.3-0.1-0.5-0.1c-0.2,0-0.4,0-0.6,0h-0.9
				V86.1z"/>
		</g>
		<g class="st0">
			<path class="st1" d="M43.5,89.5l2.7-6.6h0.7l2.7,6.6h-0.9l-0.8-2h-2.8l-0.8,2H43.5z M46.6,84c-0.3,0.8-0.6,1.6-0.9,2.2l-0.3,0.6
				h2.2l-0.3-0.6C47.2,85.5,46.9,84.8,46.6,84L46.6,84z"/>
		</g>
		<g class="st0">
			<path class="st1" d="M50.4,83.2c0.1,0,0.2-0.1,0.3-0.1c0.1,0,0.3-0.1,0.4-0.1c0.2,0,0.3-0.1,0.5-0.1c0.2,0,0.4,0,0.6,0
				c0.4,0,0.7,0,1,0.1c0.3,0.1,0.5,0.2,0.7,0.4s0.3,0.3,0.4,0.6c0.1,0.2,0.1,0.5,0.1,0.8c0,0.2,0,0.4-0.1,0.6s-0.1,0.3-0.2,0.4
				s-0.2,0.2-0.3,0.3s-0.3,0.2-0.4,0.2v0c0.2,0,0.3,0.1,0.5,0.2c0.2,0.1,0.3,0.2,0.4,0.3c0.1,0.1,0.2,0.3,0.3,0.4
				c0.1,0.2,0.1,0.4,0.1,0.6c0,0.3-0.1,0.5-0.2,0.8c-0.1,0.2-0.3,0.5-0.5,0.6c-0.2,0.2-0.5,0.3-0.8,0.4s-0.7,0.2-1.2,0.2
				c-0.4,0-0.7,0-1-0.1c-0.3-0.1-0.6-0.2-0.8-0.3v-0.7c0.2,0.1,0.5,0.2,0.8,0.3c0.3,0.1,0.6,0.1,0.9,0.1c0.6,0,1.1-0.1,1.4-0.3
				s0.5-0.6,0.5-1c0-0.4-0.1-0.6-0.4-0.8c-0.3-0.2-0.7-0.3-1.3-0.3h-0.8v-0.7h0.7c0.3,0,0.5,0,0.7-0.1c0.2-0.1,0.4-0.1,0.5-0.2
				c0.1-0.1,0.2-0.2,0.2-0.4c0-0.1,0.1-0.3,0.1-0.4c0-0.2,0-0.3-0.1-0.5s-0.2-0.3-0.3-0.4c-0.1-0.1-0.3-0.2-0.5-0.2
				c-0.2-0.1-0.4-0.1-0.7-0.1c-0.3,0-0.6,0-0.9,0.1c-0.3,0.1-0.6,0.2-0.8,0.3V83.2z"/>
		</g>
		<g class="st0">
			<path class="st1" d="M57,89.5h-0.8v-6.6H58c0.3,0,0.5,0,0.8,0c0.2,0,0.4,0.1,0.6,0.2c0.4,0.1,0.7,0.4,0.9,0.6s0.3,0.6,0.3,1
				c0,0.3-0.1,0.6-0.2,0.9s-0.3,0.5-0.6,0.6c-0.3,0.2-0.6,0.3-0.9,0.4c-0.4,0.1-0.8,0.1-1.2,0.1c-0.2,0-0.5,0-0.7,0V89.5z M57,86.1
				c0.1,0,0.2,0,0.3,0c0.1,0,0.2,0,0.3,0c0.4,0,0.7,0,1-0.1c0.3-0.1,0.5-0.1,0.7-0.3c0.2-0.1,0.3-0.3,0.4-0.4
				c0.1-0.2,0.1-0.3,0.1-0.6c0-0.3-0.1-0.5-0.2-0.6c-0.1-0.2-0.3-0.3-0.5-0.4c-0.1-0.1-0.3-0.1-0.5-0.1c-0.2,0-0.4,0-0.6,0H57V86.1z
				"/>
		</g>
		<g class="st0">
			<path class="st1" d="M62,89.5l2.7-6.6h0.7l2.7,6.6h-0.9l-0.8-2h-2.8l-0.8,2H62z M65,84c-0.3,0.8-0.6,1.6-0.9,2.2l-0.3,0.6h2.2
				l-0.3-0.6C65.6,85.5,65.3,84.8,65,84L65,84z"/>
		</g>
		<g class="st0">
			<path class="st1" d="M70.9,85.5c0.5,0,1,0,1.4,0.1s0.7,0.2,0.9,0.4s0.4,0.4,0.5,0.6c0.1,0.2,0.2,0.5,0.2,0.8c0,0.2,0,0.3-0.1,0.5
				s-0.1,0.3-0.2,0.5c-0.1,0.2-0.2,0.3-0.4,0.4s-0.3,0.3-0.6,0.4c-0.2,0.1-0.5,0.2-0.8,0.2c-0.3,0.1-0.7,0.1-1.1,0.1h-1.6v-6.6h4.3
				v0.7H70v1.9c0,0,0.1,0,0.2,0c0.1,0,0.1,0,0.2,0s0.2,0,0.2,0C70.7,85.5,70.8,85.5,70.9,85.5z M70,88.8h0.8c0.3,0,0.6,0,0.9-0.1
				s0.4-0.1,0.6-0.2c0.2-0.1,0.3-0.2,0.4-0.2s0.2-0.2,0.2-0.3c0.1-0.1,0.1-0.2,0.1-0.3c0-0.1,0-0.2,0-0.3c0-0.2,0-0.4-0.1-0.5
				c-0.1-0.2-0.2-0.3-0.4-0.4s-0.4-0.2-0.7-0.2c-0.3-0.1-0.6-0.1-1-0.1c-0.1,0-0.2,0-0.3,0c-0.1,0-0.1,0-0.2,0c-0.1,0-0.1,0-0.2,0
				s-0.1,0-0.2,0V88.8z"/>
		</g>
		<g class="st0">
			<path class="st1" d="M81.6,86.2c0,0.5-0.1,1-0.2,1.4c-0.1,0.4-0.4,0.8-0.6,1.1c-0.3,0.3-0.6,0.5-1,0.7c-0.4,0.2-0.8,0.3-1.3,0.3
				c-0.5,0-0.9-0.1-1.3-0.3c-0.4-0.2-0.7-0.4-1-0.7c-0.3-0.3-0.5-0.7-0.6-1.1c-0.1-0.4-0.2-0.9-0.2-1.4c0-0.5,0.1-1,0.2-1.4
				s0.4-0.8,0.6-1.1c0.3-0.3,0.6-0.5,1-0.7c0.4-0.2,0.8-0.3,1.3-0.3c0.5,0,0.9,0.1,1.3,0.3c0.4,0.2,0.7,0.4,1,0.7s0.5,0.7,0.6,1.1
				C81.6,85.3,81.6,85.7,81.6,86.2z M80.8,86.2c0-0.4-0.1-0.8-0.2-1.2c-0.1-0.3-0.3-0.6-0.5-0.8s-0.4-0.4-0.7-0.5
				c-0.3-0.1-0.6-0.2-0.9-0.2c-0.3,0-0.6,0.1-0.9,0.2c-0.3,0.1-0.5,0.3-0.7,0.5c-0.2,0.2-0.4,0.5-0.5,0.8c-0.1,0.3-0.2,0.7-0.2,1.2
				s0.1,0.8,0.2,1.2c0.1,0.3,0.3,0.6,0.5,0.8c0.2,0.2,0.5,0.4,0.7,0.5c0.3,0.1,0.6,0.2,0.9,0.2c0.3,0,0.6-0.1,0.9-0.2
				c0.3-0.1,0.5-0.3,0.7-0.5s0.4-0.5,0.5-0.8C80.8,87.1,80.8,86.7,80.8,86.2z"/>
		</g>
		<g class="st0">
			<path class="st1" d="M85.6,89.5h-0.8v-5.9h-2.2v-0.7h5.3v0.7h-2.2V89.5z"/>
		</g>
		<g class="st0">
			<path class="st1" d="M89.7,89.5v-6.6h0.8v3.3h0l3.1-3.3h0.8l-3.1,3.3l3.3,3.3h-0.8l-3.2-3.2h0v3.2H89.7z"/>
		</g>
		<g class="st0">
			<path class="st1" d="M95.6,89.5l2.7-6.6H99l2.7,6.6h-0.9l-0.8-2h-2.8l-0.8,2H95.6z M98.6,84c-0.3,0.8-0.6,1.6-0.9,2.2l-0.2,0.6
				h2.2l-0.3-0.6C99.2,85.5,98.9,84.8,98.6,84L98.6,84z"/>
		</g>
		<g class="st0">
			<path class="st1" d="M16.2,95.9H17v6.6h-0.8v-3c0-1.1,0-1.9,0.1-2.5h0c-0.3,0.5-0.7,1.1-1.2,1.8l-2.6,3.7h-0.8v-6.6h0.8v3.3
				c0,0.8,0,1.6-0.1,2.1h0c0.3-0.5,0.7-1.1,1.2-1.8L16.2,95.9z"/>
		</g>
		<g class="st0">
			<path class="st1" d="M26.2,95.9H27v6.6h-0.8v-3c0-1.1,0-1.9,0.1-2.5h0c-0.3,0.5-0.7,1.1-1.2,1.8l-2.6,3.7h-0.8v-6.6h0.8v3.3
				c0,0.8,0,1.6-0.1,2.1h0c0.3-0.5,0.7-1.1,1.2-1.8L26.2,95.9z"/>
		</g>
		<g class="st0">
			<path class="st1" d="M30,98.8h3.5v-2.9h0.8v6.6h-0.8v-3H30v3h-0.8v-6.6H30V98.8z"/>
		</g>
		<g class="st0">
			<path class="st1" d="M39,102.5h-0.8v-5.9H36v-0.7h5.3v0.7H39V102.5z"/>
		</g>
		<g class="st0">
			<path class="st1" d="M44,101.8h3.4v0.7h-4.2v-6.6h4v0.7H44v2.1h2.9v0.7H44V101.8z"/>
		</g>
		<g class="st0">
			<path class="st1" d="M50.5,102.5h-0.8v-6.6h1.8c0.3,0,0.5,0,0.8,0c0.2,0,0.4,0.1,0.6,0.2c0.4,0.1,0.7,0.4,0.9,0.6s0.3,0.6,0.3,1
				c0,0.3-0.1,0.6-0.2,0.9c-0.1,0.3-0.3,0.5-0.6,0.6c-0.3,0.2-0.6,0.3-0.9,0.4c-0.4,0.1-0.8,0.1-1.2,0.1c-0.2,0-0.5,0-0.7,0V102.5z
				 M50.5,99.1c0.1,0,0.2,0,0.3,0c0.1,0,0.2,0,0.3,0c0.4,0,0.7,0,1-0.1c0.3-0.1,0.5-0.1,0.7-0.3s0.3-0.3,0.4-0.4
				c0.1-0.2,0.1-0.3,0.1-0.6c0-0.3-0.1-0.5-0.2-0.6c-0.1-0.2-0.3-0.3-0.5-0.4c-0.1-0.1-0.3-0.1-0.5-0.1c-0.2,0-0.4,0-0.6,0h-0.9
				V99.1z"/>
		</g>
		<g class="st0">
			<path class="st1" d="M57,98.8h3.5v-2.9h0.8v6.6h-0.8v-3H57v3h-0.8v-6.6H57V98.8z"/>
		</g>
		<g class="st0">
			<path class="st1" d="M64.5,101.8h3.4v0.7h-4.2v-6.6h4v0.7h-3.2v2.1h2.9v0.7h-2.9V101.8z"/>
		</g>
		<g class="st0">
			<path class="st1" d="M72.6,102.5h-0.8v-5.9h-2.2v-0.7h5.3v0.7h-2.2V102.5z"/>
		</g>
		<g class="st0">
			<path class="st1" d="M76.4,99.7h2.2v0.7h-2.2V99.7z"/>
		</g>
		<g class="st0">
			<path class="st1" d="M83.7,102.5h-0.4l-1.7-3.9c-0.2-0.5-0.5-1.1-0.7-1.8h0c0,0.9,0.1,1.8,0.1,2.5v3.2h-0.8v-6.6h1.2l1.6,3.7
				c0.2,0.4,0.4,0.9,0.6,1.5h0c0.2-0.7,0.4-1.2,0.6-1.5l1.6-3.7h1.2v6.6h-0.8v-3.2c0-0.7,0-1.6,0.1-2.5h0c-0.2,0.7-0.5,1.3-0.7,1.8
				L83.7,102.5z"/>
		</g>
		<g class="st0">
			<path class="st1" d="M88,102.5l2.7-6.6h0.7l2.7,6.6h-0.9l-0.8-2h-2.8l-0.8,2H88z M91.1,97c-0.3,0.8-0.6,1.6-0.9,2.2L90,99.8h2.2
				l-0.3-0.6C91.7,98.5,91.4,97.8,91.1,97L91.1,97z"/>
		</g>
		<g class="st0">
			<path class="st1" d="M96.1,102.5h-0.8v-6.6h1.8c0.3,0,0.5,0,0.8,0c0.2,0,0.4,0.1,0.6,0.2c0.4,0.1,0.7,0.4,0.9,0.6
				c0.2,0.3,0.3,0.6,0.3,1c0,0.3-0.1,0.6-0.2,0.9c-0.1,0.3-0.3,0.5-0.6,0.6s-0.6,0.3-0.9,0.4c-0.4,0.1-0.8,0.1-1.2,0.1
				c-0.2,0-0.5,0-0.7,0V102.5z M96.1,99.1c0.1,0,0.2,0,0.3,0c0.1,0,0.2,0,0.3,0c0.4,0,0.7,0,1-0.1c0.3-0.1,0.5-0.1,0.7-0.3
				c0.2-0.1,0.3-0.3,0.4-0.4c0.1-0.2,0.1-0.3,0.1-0.6c0-0.3-0.1-0.5-0.2-0.6c-0.1-0.2-0.3-0.3-0.5-0.4c-0.1-0.1-0.3-0.1-0.5-0.1
				s-0.4,0-0.6,0h-0.9V99.1z"/>
		</g>
		<g class="st0">
			<path class="st1" d="M101.7,102.5v-6.6h0.8v3.3h0l3.1-3.3h0.8l-3.1,3.3l3.3,3.3h-0.8l-3.2-3.2h0v3.2H101.7z"/>
		</g>
		<g class="st0">
			<path class="st1" d="M109.1,101.8h3.4v0.7h-4.2v-6.6h4v0.7h-3.2v2.1h2.9v0.7h-2.9V101.8z"/>
		</g>
		<g class="st0">
			<path class="st1" d="M117.1,102.5h-0.8v-5.9h-2.2v-0.7h5.3v0.7h-2.2V102.5z"/>
		</g>
		<g class="st0">
			<path class="st1" d="M125.9,95.9h0.8v6.6h-0.8v-3c0-1.1,0-1.9,0.1-2.5h0c-0.3,0.5-0.7,1.1-1.2,1.8l-2.6,3.7h-0.8v-6.6h0.8v3.3
				c0,0.8,0,1.6-0.1,2.1h0c0.3-0.5,0.7-1.1,1.2-1.8L125.9,95.9z"/>
		</g>
		<g class="st0">
			<path class="st1" d="M129.6,98.8h3.5v-2.9h0.8v6.6H133v-3h-3.5v3h-0.8v-6.6h0.8V98.8z"/>
		</g>
		<g class="st0">
			<path class="st1" d="M136.3,102.5v-6.6h4.2v0.7h-3.4v5.9H136.3z"/>
		</g>
	</g>
	<g>
		<g>
			<g>
				<path class="st1" d="M72,14.4c0.7,0.6,1,1.6,1,2.8c0,1.4-0.4,2.5-1.3,3.3c-0.8,0.8-2,1.2-3.5,1.2h-1.5v0.5l0.1,4h-1.6l0.1-3.8
					l-0.1-8.9l3.9,0C70.3,13.4,71.3,13.8,72,14.4z M71.3,17.3c0-1.6-0.9-2.5-2.6-2.6l-1.9,0.1l-0.1,5.6l2.1,0
					C70.5,20.2,71.3,19.1,71.3,17.3z"/>
				<path class="st1" d="M78.1,26.2h-1.6l0.1-3.8l-0.1-8.9h1.6l-0.1,8.8L78.1,26.2z"/>
				<path class="st1" d="M89.2,14l-0.3,1.5l-0.3,0.1c-0.8-0.6-1.6-0.9-2.5-0.9c-0.5,0-0.9,0.1-1.3,0.3c-0.4,0.2-0.6,0.5-0.8,0.8
					c-0.2,0.3-0.3,0.7-0.3,1c0,0.4,0.1,0.7,0.3,0.9c0.2,0.3,0.5,0.5,0.8,0.7c0.3,0.2,0.8,0.4,1.4,0.7c0.7,0.3,1.3,0.6,1.7,0.9
					c0.4,0.3,0.8,0.6,1.1,1.1c0.3,0.4,0.5,1,0.5,1.6c0,0.7-0.2,1.3-0.5,1.8c-0.4,0.6-0.9,1-1.5,1.3c-0.7,0.3-1.4,0.5-2.2,0.5
					c-1.2,0-2.4-0.3-3.4-0.9l0.2-1.6l0.2-0.1c0.5,0.5,1,0.8,1.5,1c0.6,0.2,1.1,0.3,1.6,0.3c0.5,0,1-0.1,1.3-0.3
					c0.4-0.2,0.7-0.5,0.9-0.8c0.2-0.3,0.3-0.7,0.3-1.1c0-0.6-0.2-1-0.6-1.3c-0.4-0.3-1.1-0.7-1.9-1.1c-0.7-0.3-1.3-0.7-1.7-0.9
					c-0.4-0.3-0.8-0.6-1.1-1.1c-0.3-0.4-0.5-1-0.5-1.6c0-0.7,0.2-1.2,0.5-1.8c0.4-0.5,0.8-1,1.5-1.3c0.6-0.3,1.4-0.5,2.2-0.5
					C87.3,13.4,88.2,13.6,89.2,14z"/>
				<path class="st1" d="M97.3,26.2h-1.6l0.1-3.7l0-0.9l-4.1-8.2h1.7l0.3,0.7l2.8,5.7h0.2l3-5.7l0.3-0.8h1.7l-4.4,8.2l0,0.9
					L97.3,26.2z"/>
				<path class="st1" d="M111.1,14l-0.3,1.5l-0.3,0.1c-0.8-0.6-1.6-0.9-2.5-0.9c-0.5,0-0.9,0.1-1.3,0.3c-0.4,0.2-0.6,0.5-0.8,0.8
					c-0.2,0.3-0.3,0.7-0.3,1c0,0.4,0.1,0.7,0.3,0.9c0.2,0.3,0.5,0.5,0.8,0.7c0.3,0.2,0.8,0.4,1.4,0.7c0.7,0.3,1.3,0.6,1.7,0.9
					c0.4,0.3,0.8,0.6,1.1,1.1c0.3,0.4,0.5,1,0.5,1.6c0,0.7-0.2,1.3-0.5,1.8c-0.4,0.6-0.9,1-1.5,1.3c-0.7,0.3-1.4,0.5-2.2,0.5
					c-1.2,0-2.4-0.3-3.4-0.9l0.2-1.6l0.2-0.1c0.5,0.5,1,0.8,1.5,1c0.6,0.2,1.1,0.3,1.6,0.3c0.5,0,1-0.1,1.3-0.3
					c0.4-0.2,0.7-0.5,0.9-0.8c0.2-0.3,0.3-0.7,0.3-1.1c0-0.6-0.2-1-0.6-1.3c-0.4-0.3-1.1-0.7-1.9-1.1c-0.7-0.3-1.3-0.7-1.7-0.9
					c-0.4-0.3-0.8-0.6-1.1-1.1c-0.3-0.4-0.5-1-0.5-1.6c0-0.7,0.2-1.2,0.5-1.8c0.4-0.5,0.8-1,1.5-1.3c0.6-0.3,1.4-0.5,2.2-0.5
					C109.2,13.4,110.1,13.6,111.1,14z"/>
				<path class="st1" d="M122.2,14.8l-2.2-0.1h-1.3l-0.1,7.5l0.1,4h-1.6l0.1-3.8l-0.1-7.7h-1.3l-2.3,0.1l-0.1-0.2l0.1-1.2h8.7
					l0.1,0.2L122.2,14.8z"/>
				<path class="st1" d="M132.8,26.2h-7.2l0.1-3.8l-0.1-8.9h7.2l0.1,0.2l-0.1,1.2l-3-0.1l-2.5,0l0,4.2l2.4,0l2.1-0.1l0.1,0.1
					l-0.1,1.2l-2.2,0l-2.3,0l0,1.9l0.1,2.7l2.5,0l3.1-0.1l0.1,0.2L132.8,26.2z"/>
				<path class="st1" d="M147.4,26.2l-0.3-3.9l-0.7-6.4h-0.1l-3.5,8.8h-1.3l-3.4-8.8h-0.2l-0.7,6.2l-0.3,4h-1.4l1.3-12.8h1.8l0.7,2
					l2.8,7.3h0.1l2.9-7.4l0.7-1.8h1.8l1.3,12.8H147.4z"/>
				<path class="st1" d="M159.2,14l-0.3,1.5l-0.3,0.1c-0.8-0.6-1.6-0.9-2.5-0.9c-0.5,0-0.9,0.1-1.3,0.3c-0.4,0.2-0.6,0.5-0.8,0.8
					c-0.2,0.3-0.3,0.7-0.3,1c0,0.4,0.1,0.7,0.3,0.9c0.2,0.3,0.5,0.5,0.8,0.7c0.3,0.2,0.8,0.4,1.4,0.7c0.7,0.3,1.3,0.6,1.7,0.9
					c0.4,0.3,0.8,0.6,1.1,1.1c0.3,0.4,0.5,1,0.5,1.6c0,0.7-0.2,1.3-0.5,1.8c-0.4,0.6-0.9,1-1.5,1.3c-0.7,0.3-1.4,0.5-2.2,0.5
					c-1.2,0-2.4-0.3-3.4-0.9l0.2-1.6l0.2-0.1c0.5,0.5,1,0.8,1.5,1c0.6,0.2,1.1,0.3,1.6,0.3c0.5,0,1-0.1,1.3-0.3
					c0.4-0.2,0.7-0.5,0.9-0.8c0.2-0.3,0.3-0.7,0.3-1.1c0-0.6-0.2-1-0.6-1.3c-0.4-0.3-1.1-0.7-1.9-1.1c-0.7-0.3-1.3-0.7-1.7-0.9
					c-0.4-0.3-0.8-0.6-1.1-1.1c-0.3-0.4-0.5-1-0.5-1.6c0-0.7,0.2-1.2,0.5-1.8c0.4-0.5,0.8-1,1.5-1.3c0.6-0.3,1.4-0.5,2.2-0.5
					C157.3,13.4,158.3,13.6,159.2,14z"/>
			</g>
			<g>
				<path class="st2" d="M66,36.8h-0.7v-5.9h1.6c0.2,0,0.5,0,0.7,0c0.2,0,0.4,0.1,0.6,0.1c0.3,0.1,0.6,0.3,0.8,0.6
					c0.2,0.2,0.3,0.6,0.3,0.9c0,0.3-0.1,0.6-0.2,0.8c-0.1,0.2-0.3,0.4-0.5,0.6c-0.2,0.2-0.5,0.3-0.8,0.3c-0.3,0.1-0.7,0.1-1.1,0.1
					c-0.2,0-0.4,0-0.6,0V36.8z M66,33.7c0.1,0,0.2,0,0.3,0c0.1,0,0.2,0,0.3,0c0.3,0,0.6,0,0.9-0.1c0.2-0.1,0.4-0.1,0.6-0.2
					c0.1-0.1,0.3-0.2,0.3-0.4c0.1-0.1,0.1-0.3,0.1-0.5c0-0.2-0.1-0.4-0.2-0.6c-0.1-0.1-0.3-0.3-0.5-0.3c-0.1,0-0.3-0.1-0.4-0.1
					c-0.2,0-0.4,0-0.6,0H66V33.7z"/>
				<path class="st2" d="M71.1,36.2h3v0.6h-3.7v-5.9H74v0.6h-2.8v1.9h2.5v0.6h-2.5V36.2z"/>
				<path class="st2" d="M82.1,36.8h-6.7v-5.9h0.7v5.2h2.3v-5.2h0.7v5.2h2.3v-5.2h0.7V36.8z"/>
				<path class="st2" d="M84.3,36.2h3v0.6h-3.7v-5.9h3.6v0.6h-2.8v1.9h2.5v0.6h-2.5V36.2z"/>
				<path class="st2" d="M89.2,33.5h3.1v-2.5H93v5.9h-0.7v-2.7h-3.1v2.7h-0.7v-5.9h0.7V33.5z"/>
				<path class="st2" d="M98.5,30.9h0.7v5.9h-0.7v-2.6c0-1,0-1.7,0.1-2.2h0c-0.3,0.4-0.6,1-1.1,1.6l-2.3,3.3h-0.7v-5.9h0.7v3
					c0,0.8,0,1.4-0.1,1.9h0c0.3-0.4,0.6-0.9,1.1-1.6L98.5,30.9z"/>
				<path class="st2" d="M101.5,36.2h3v0.6h-3.7v-5.9h3.6v0.6h-2.8v1.9h2.5v0.6h-2.5V36.2z"/>
				<path class="st2" d="M108.2,36.2h3v0.6h-3.7v-5.9h3.6v0.6h-2.8v1.9h2.5v0.6h-2.5V36.2z"/>
				<path class="st2" d="M115.3,31.5c-0.3,0-0.6,0.1-0.9,0.2c-0.3,0.1-0.5,0.3-0.7,0.5c-0.2,0.2-0.4,0.5-0.5,0.8
					c-0.1,0.3-0.2,0.7-0.2,1.1c0,0.4,0.1,0.8,0.2,1c0.1,0.3,0.3,0.5,0.5,0.7c0.2,0.2,0.5,0.3,0.7,0.4s0.6,0.1,1,0.1
					c0.1,0,0.2,0,0.3,0c0.1,0,0.2,0,0.3,0c0.1,0,0.2,0,0.3-0.1c0.1,0,0.2-0.1,0.3-0.1v0.6c-0.2,0.1-0.4,0.1-0.6,0.2
					c-0.2,0-0.5,0.1-0.7,0.1c-0.5,0-0.9-0.1-1.3-0.2c-0.4-0.1-0.7-0.3-0.9-0.6c-0.3-0.3-0.4-0.6-0.6-0.9c-0.1-0.4-0.2-0.8-0.2-1.2
					c0-0.5,0.1-0.9,0.2-1.3c0.1-0.4,0.3-0.7,0.6-1c0.3-0.3,0.6-0.5,1-0.6c0.4-0.2,0.8-0.2,1.3-0.2c0.1,0,0.2,0,0.4,0
					c0.1,0,0.2,0,0.3,0c0.1,0,0.2,0,0.3,0.1c0.1,0,0.2,0.1,0.2,0.1v0.6c-0.2-0.1-0.4-0.1-0.6-0.1C115.7,31.5,115.5,31.5,115.3,31.5z
					"/>
				<path class="st2" d="M119.8,36.8h-0.7v-5.2h-2v-0.6h4.6v0.6h-2V36.8z"/>
				<path class="st2" d="M123.4,33.3c0.2,0,0.3,0,0.3,0c0.1,0,0.1,0,0.2,0c0.1,0,0.2,0,0.2,0c0.2,0,0.4,0,0.5,0c0.2,0,0.3,0,0.5,0.1
					c0.3,0,0.5,0.1,0.7,0.2c0.2,0.1,0.4,0.2,0.5,0.4c0.1,0.1,0.2,0.3,0.3,0.5c0.1,0.2,0.1,0.4,0.1,0.6c0,0.2,0,0.3-0.1,0.5
					c0,0.2-0.1,0.3-0.2,0.5c-0.1,0.2-0.2,0.3-0.4,0.4c-0.2,0.1-0.4,0.2-0.7,0.3c-0.2,0-0.4,0.1-0.6,0.1c-0.2,0-0.5,0-0.8,0h-1.4
					v-5.9h0.7V33.3z M123.4,36.2h0.7c0.3,0,0.5,0,0.8-0.1c0.2,0,0.4-0.1,0.5-0.1c0.1-0.1,0.3-0.1,0.3-0.2c0.1-0.1,0.2-0.2,0.2-0.3
					c0-0.1,0.1-0.2,0.1-0.3c0-0.1,0-0.2,0-0.2c0-0.1,0-0.2-0.1-0.4c0-0.1-0.1-0.2-0.2-0.3c-0.1-0.1-0.2-0.2-0.3-0.2
					c-0.1-0.1-0.3-0.1-0.5-0.1c-0.1,0-0.2,0-0.4,0c-0.1,0-0.3,0-0.4,0c-0.1,0-0.1,0-0.2,0c-0.1,0-0.1,0-0.2,0c-0.1,0-0.2,0-0.3,0
					V36.2z"/>
				<path class="st2" d="M132.7,33.8c0.2,0,0.3,0.1,0.5,0.1c0.1,0.1,0.3,0.2,0.4,0.3c0.1,0.1,0.2,0.2,0.2,0.4
					c0.1,0.2,0.1,0.3,0.1,0.5c0,0.1,0,0.3-0.1,0.4c0,0.2-0.1,0.3-0.2,0.4c-0.1,0.1-0.2,0.3-0.4,0.4c-0.2,0.1-0.3,0.2-0.6,0.3
					c-0.2,0.1-0.4,0.1-0.6,0.1c-0.2,0-0.5,0-0.8,0h-1.5v-5.9h1.4c0.1,0,0.3,0,0.4,0c0.1,0,0.2,0,0.3,0c0.1,0,0.2,0,0.3,0
					c0.1,0,0.2,0,0.2,0c0.2,0,0.3,0.1,0.5,0.2c0.1,0.1,0.3,0.2,0.4,0.3c0.1,0.1,0.2,0.3,0.2,0.4c0.1,0.2,0.1,0.3,0.1,0.5
					c0,0.1,0,0.3-0.1,0.4c0,0.1-0.1,0.3-0.2,0.4c-0.1,0.1-0.2,0.2-0.3,0.3C133,33.6,132.9,33.7,132.7,33.8L132.7,33.8z M131.6,33.5
					c0.1,0,0.3,0,0.4,0c0.1,0,0.2,0,0.3-0.1c0.2-0.1,0.4-0.2,0.5-0.3c0.1-0.2,0.2-0.3,0.2-0.5c0-0.2-0.1-0.4-0.2-0.5
					c-0.1-0.1-0.3-0.2-0.5-0.3c-0.1,0-0.2-0.1-0.4-0.1c-0.1,0-0.3,0-0.5,0h-0.8v1.9H131.6z M130.6,34.1v2h0.9c0.2,0,0.4,0,0.6,0
					c0.2,0,0.3,0,0.4-0.1c0.1,0,0.2-0.1,0.3-0.2s0.2-0.1,0.2-0.2c0.1-0.1,0.1-0.2,0.1-0.3c0-0.1,0-0.2,0-0.3c0-0.1,0-0.2,0-0.3
					c0-0.1-0.1-0.2-0.1-0.3c-0.1-0.1-0.1-0.1-0.2-0.2c-0.1-0.1-0.2-0.1-0.4-0.1c-0.1,0-0.2,0-0.3,0c-0.1,0-0.3,0-0.4,0H130.6z"/>
				<path class="st2" d="M138,31.5c-0.3,0-0.6,0.1-0.9,0.2c-0.3,0.1-0.5,0.3-0.7,0.5c-0.2,0.2-0.4,0.5-0.5,0.8
					c-0.1,0.3-0.2,0.7-0.2,1.1c0,0.4,0.1,0.8,0.2,1c0.1,0.3,0.3,0.5,0.5,0.7c0.2,0.2,0.5,0.3,0.7,0.4s0.6,0.1,1,0.1
					c0.1,0,0.2,0,0.3,0c0.1,0,0.2,0,0.3,0c0.1,0,0.2,0,0.3-0.1c0.1,0,0.2-0.1,0.3-0.1v0.6c-0.2,0.1-0.4,0.1-0.6,0.2
					c-0.2,0-0.5,0.1-0.7,0.1c-0.5,0-0.9-0.1-1.3-0.2c-0.4-0.1-0.7-0.3-0.9-0.6c-0.3-0.3-0.4-0.6-0.6-0.9c-0.1-0.4-0.2-0.8-0.2-1.2
					c0-0.5,0.1-0.9,0.2-1.3c0.1-0.4,0.3-0.7,0.6-1c0.3-0.3,0.6-0.5,1-0.6c0.4-0.2,0.8-0.2,1.3-0.2c0.1,0,0.2,0,0.4,0
					c0.1,0,0.2,0,0.3,0c0.1,0,0.2,0,0.3,0.1c0.1,0,0.2,0.1,0.2,0.1v0.6c-0.2-0.1-0.4-0.1-0.6-0.1C138.4,31.5,138.2,31.5,138,31.5z"
					/>
				<path class="st2" d="M141.2,36.2h3v0.6h-3.7v-5.9h3.6v0.6h-2.8v1.9h2.5v0.6h-2.5V36.2z"/>
				<path class="st2" d="M145.4,36.8v-5.9h3.7v0.6h-3v5.2H145.4z"/>
				<path class="st2" d="M149,36.2c0.2-0.3,0.5-0.6,0.7-1c0.2-0.4,0.4-0.7,0.6-1.2c0.2-0.4,0.3-0.9,0.4-1.4s0.2-1.1,0.3-1.7h2.7v5.2
					h0.7v2.6h-0.7v-1.9h-4.2v1.9h-0.7v-2.6H149z M151.7,31.6c-0.1,0.5-0.2,1-0.3,1.4c-0.1,0.4-0.3,0.8-0.4,1.2
					c-0.2,0.4-0.4,0.7-0.6,1c-0.2,0.3-0.4,0.6-0.7,0.9v0h3.2v-4.6H151.7z"/>
				<path class="st2" d="M155.1,36.8l2.4-5.9h0.6l2.4,5.9h-0.8L159,35h-2.4l-0.7,1.8H155.1z M157.8,31.9c-0.3,0.7-0.5,1.4-0.7,2
					l-0.2,0.6h1.9l-0.2-0.6C158.3,33.2,158.1,32.6,157.8,31.9L157.8,31.9z"/>
			</g>
		</g>
		<circle class="st1" cx="25.4" cy="24.9" r="24.9"/>
		<path class="st3" d="M45.6,5.1v40.4H5.3V5.1H45.6 M46.6,4.1H4.3v42.3h42.3V4.1L46.6,4.1z"/>
		<g>
			<path class="st4" d="M21.3,30l-0.2-0.3c0.6-1.5,1.4-4,2.3-7.6l0.1-0.3c-1.3,0-2.1,0.2-2.6,0.5c-0.4,0.3-0.7,0.9-0.7,1.9l-0.3-0.1
				c0-1.1,0.1-1.8,0.2-2.3s0.2-0.8,0.5-1c0.2-0.2,0.6-0.3,1.1-0.3l2.3,0c0.8,0,1.7,0,2.6,0c2.1,0,3.8,0,4.8-0.1l-0.4,1l-1.6,0.3
				c-0.5,1.4-0.7,2.7-0.7,3.8c0,0.7,0.1,1.4,0.3,2c0.2,0.6,0.4,1,0.7,1.2c0.2,0.2,0.5,0.3,0.8,0.3c0.2,0,0.4,0,0.6-0.1
				c0.2-0.1,0.4-0.2,0.7-0.5l0,0.3c-0.4,0.4-0.8,0.7-1.1,0.9c-0.4,0.2-0.8,0.3-1.2,0.3c-0.3,0-0.6-0.1-0.9-0.2
				c-0.3-0.1-0.5-0.4-0.7-0.7c-0.2-0.3-0.4-0.7-0.5-1.2c-0.1-0.4-0.1-0.9-0.1-1.3c0-1.4,0.4-3,1.2-4.8h-4.3
				c-0.7,2.6-1.2,5.2-1.5,7.7C22.2,29.7,21.8,29.9,21.3,30z"/>
		</g>
	</g>
	<path class="st3" d="M158,72.4v39H2v-39H158 M160,70.4H0v43h160V70.4L160,70.4z"/>
</g>
</svg>
