<?xml version="1.0" encoding="utf-8"?>
<!-- Generator: Adobe Illustrator 20.0.0, SVG Export Plug-In . SVG Version: 6.00 Build 0)  -->
<svg version="1.1" id="Слой_1_2_" xmlns="http://www.w3.org/2000/svg" xmlns:xlink="http://www.w3.org/1999/xlink" x="0px"
	 y="0px" viewBox="0 0 541 73" style="enable-background:new 0 0 541 73;" xml:space="preserve">
<style type="text/css">
	.st0{enable-background:new    ;}
	.st1{fill:#FFFFFF;}
	.st2{fill:#EEEEEE;}
	.st3{fill:#868685;}
	.st4{fill:#00ADAA;enable-background:new    ;}
	.st5{fill:#141516;}
</style>
<g>
	<g id="WEB-РАЗРАБОТКА__И_ИН_1_">
		<g class="st0">
			<path class="st1" d="M342.1,26.4c-0.1,0.4-0.2,1.2-0.5,2.2l-1.4,5.4h-1.1l-2.8-9.1h1.1l1.6,5.4c0.3,0.9,0.5,1.6,0.6,2.3h0
				c0.1-0.4,0.2-0.8,0.3-1.2c0.1-0.4,0.2-0.8,0.3-1.1l1.4-5.4h1.1l1.4,5.4c0.3,1.3,0.5,2.1,0.6,2.3h0c0.2-0.6,0.4-1.4,0.6-2.3
				l1.6-5.4h1.1l-2.8,9.1h-1.1l-1.4-5.4C342.4,27.6,342.2,26.8,342.1,26.4L342.1,26.4z"/>
		</g>
		<g class="st0">
			<path class="st1" d="M351,33h4.7v1h-5.8v-9.1h5.6v1H351v3h3.9v1H351V33z"/>
		</g>
		<g class="st0">
			<path class="st1" d="M363,29.3c0.3,0,0.5,0.1,0.8,0.2s0.4,0.2,0.6,0.4c0.2,0.2,0.3,0.4,0.4,0.6c0.1,0.2,0.1,0.5,0.1,0.8
				c0,0.2,0,0.4-0.1,0.7c-0.1,0.2-0.2,0.5-0.3,0.7c-0.1,0.2-0.3,0.4-0.6,0.6s-0.5,0.3-0.9,0.5c-0.3,0.1-0.6,0.2-0.9,0.2
				c-0.3,0-0.7,0.1-1.2,0.1h-2.3v-9.1h2.3c0.2,0,0.4,0,0.6,0c0.2,0,0.3,0,0.5,0c0.1,0,0.3,0,0.4,0.1c0.1,0,0.2,0,0.3,0.1
				c0.3,0.1,0.5,0.2,0.8,0.3c0.2,0.1,0.4,0.3,0.6,0.5s0.3,0.4,0.4,0.6s0.1,0.5,0.1,0.8c0,0.2,0,0.4-0.1,0.6s-0.1,0.4-0.3,0.6
				s-0.3,0.3-0.5,0.5S363.3,29.2,363,29.3L363,29.3z M361.4,28.8c0.2,0,0.4,0,0.6,0c0.2,0,0.3-0.1,0.4-0.1c0.3-0.1,0.6-0.3,0.7-0.5
				s0.2-0.5,0.2-0.9c0-0.3-0.1-0.6-0.2-0.8s-0.4-0.4-0.8-0.5c-0.2,0-0.4-0.1-0.6-0.1c-0.2,0-0.5,0-0.8,0h-1.3v3H361.4z M359.7,29.8
				V33h1.3c0.3,0,0.6,0,0.9,0c0.3,0,0.5-0.1,0.7-0.1c0.2-0.1,0.4-0.2,0.5-0.3c0.1-0.1,0.3-0.2,0.4-0.4c0.1-0.1,0.2-0.3,0.2-0.4
				s0.1-0.3,0.1-0.4c0-0.2,0-0.3-0.1-0.5c0-0.2-0.1-0.3-0.2-0.4c-0.1-0.1-0.2-0.2-0.4-0.3s-0.3-0.2-0.6-0.2c-0.1,0-0.3-0.1-0.5-0.1
				s-0.4,0-0.7,0H359.7z"/>
		</g>
		<g class="st0">
			<path class="st1" d="M366.9,30.1h3v1h-3V30.1z"/>
		</g>
		<g class="st0">
			<path class="st1" d="M374.1,34H373v-9.1h2.5c0.4,0,0.7,0,1,0.1c0.3,0,0.6,0.1,0.9,0.2c0.5,0.2,1,0.5,1.2,0.9
				c0.3,0.4,0.4,0.9,0.4,1.4c0,0.5-0.1,0.9-0.3,1.2c-0.2,0.4-0.5,0.6-0.8,0.9s-0.8,0.4-1.3,0.5c-0.5,0.1-1.1,0.2-1.7,0.2
				c-0.3,0-0.6,0-0.9,0V34z M374.1,29.2c0.2,0,0.3,0,0.5,0s0.3,0,0.5,0c0.5,0,1,0,1.3-0.1s0.7-0.2,0.9-0.4c0.2-0.2,0.4-0.3,0.5-0.6
				c0.1-0.2,0.2-0.5,0.2-0.8c0-0.4-0.1-0.6-0.3-0.9s-0.4-0.4-0.7-0.5c-0.2-0.1-0.4-0.1-0.7-0.2c-0.3,0-0.6,0-0.9,0h-1.3V29.2z"/>
		</g>
		<g class="st0">
			<path class="st1" d="M380.7,34l3.7-9.1h1l3.7,9.1h-1.2l-1.1-2.8H383l-1.1,2.8H380.7z M384.9,26.3c-0.4,1.1-0.8,2.2-1.2,3.1
				l-0.3,0.9h3l-0.3-0.9C385.7,28.4,385.4,27.4,384.9,26.3L384.9,26.3z"/>
		</g>
		<g class="st0">
			<path class="st1" d="M391,25.2c0.1-0.1,0.3-0.1,0.5-0.2c0.2-0.1,0.4-0.1,0.6-0.2c0.2-0.1,0.5-0.1,0.7-0.1c0.3,0,0.5-0.1,0.8-0.1
				c0.5,0,0.9,0.1,1.3,0.2s0.7,0.3,1,0.5c0.3,0.2,0.5,0.5,0.6,0.8s0.2,0.7,0.2,1.1c0,0.3,0,0.5-0.1,0.8c-0.1,0.2-0.2,0.4-0.3,0.6
				c-0.1,0.2-0.3,0.3-0.5,0.4c-0.2,0.1-0.4,0.2-0.6,0.3v0c0.2,0.1,0.5,0.1,0.7,0.2c0.2,0.1,0.4,0.2,0.6,0.4c0.2,0.2,0.3,0.4,0.4,0.6
				c0.1,0.2,0.1,0.5,0.1,0.8c0,0.4-0.1,0.7-0.2,1.1c-0.1,0.3-0.4,0.6-0.7,0.9c-0.3,0.3-0.7,0.5-1.1,0.6c-0.5,0.1-1,0.2-1.7,0.2
				c-0.5,0-1,0-1.4-0.1c-0.4-0.1-0.8-0.2-1.1-0.4v-1c0.3,0.2,0.7,0.3,1.1,0.4s0.8,0.1,1.3,0.1c0.9,0,1.5-0.2,2-0.5
				c0.4-0.3,0.7-0.8,0.7-1.4c0-0.5-0.2-0.9-0.6-1.1c-0.4-0.3-0.9-0.4-1.7-0.4h-1v-1h0.9c0.4,0,0.7,0,1-0.1c0.3-0.1,0.5-0.2,0.6-0.3
				c0.2-0.1,0.3-0.3,0.3-0.5c0.1-0.2,0.1-0.4,0.1-0.6c0-0.2,0-0.4-0.1-0.6s-0.2-0.4-0.4-0.5c-0.2-0.1-0.4-0.2-0.7-0.3
				s-0.6-0.1-1-0.1c-0.4,0-0.8,0-1.2,0.1c-0.4,0.1-0.8,0.2-1.2,0.4V25.2z"/>
		</g>
		<g class="st0">
			<path class="st1" d="M400.2,34h-1.1v-9.1h2.5c0.4,0,0.7,0,1,0.1s0.6,0.1,0.9,0.2c0.5,0.2,1,0.5,1.2,0.9c0.3,0.4,0.4,0.9,0.4,1.4
				c0,0.5-0.1,0.9-0.3,1.2c-0.2,0.4-0.5,0.6-0.8,0.9s-0.8,0.4-1.3,0.5c-0.5,0.1-1.1,0.2-1.7,0.2c-0.3,0-0.6,0-0.9,0V34z M400.2,29.2
				c0.2,0,0.3,0,0.5,0s0.3,0,0.5,0c0.5,0,1,0,1.3-0.1s0.7-0.2,0.9-0.4c0.2-0.2,0.4-0.3,0.5-0.6c0.1-0.2,0.2-0.5,0.2-0.8
				c0-0.4-0.1-0.6-0.3-0.9s-0.4-0.4-0.7-0.5c-0.2-0.1-0.4-0.1-0.7-0.2c-0.3,0-0.6,0-0.9,0h-1.3V29.2z"/>
		</g>
		<g class="st0">
			<path class="st1" d="M406.8,34l3.7-9.1h1l3.7,9.1H414l-1.1-2.8h-3.8L408,34H406.8z M411,26.3c-0.4,1.1-0.8,2.2-1.2,3.1l-0.3,0.9
				h3l-0.3-0.9C411.8,28.4,411.5,27.4,411,26.3L411,26.3z"/>
		</g>
		<g class="st0">
			<path class="st1" d="M419.8,28.5c0.7,0,1.4,0.1,1.9,0.2c0.5,0.1,1,0.3,1.3,0.5c0.3,0.2,0.6,0.5,0.7,0.8c0.2,0.3,0.2,0.7,0.2,1.1
				c0,0.2,0,0.4-0.1,0.7c0,0.2-0.1,0.4-0.3,0.7s-0.3,0.4-0.5,0.6c-0.2,0.2-0.5,0.4-0.8,0.5s-0.7,0.3-1.1,0.3s-1,0.1-1.6,0.1h-2.2
				v-9.1h5.9v1h-4.8v2.7c0.1,0,0.1,0,0.2,0c0.1,0,0.2,0,0.3,0c0.1,0,0.2,0,0.3,0C419.5,28.5,419.7,28.5,419.8,28.5z M418.6,33h1.2
				c0.5,0,0.9,0,1.2-0.1c0.3-0.1,0.6-0.1,0.8-0.2c0.2-0.1,0.4-0.2,0.5-0.3c0.1-0.1,0.2-0.3,0.3-0.4c0.1-0.1,0.1-0.3,0.1-0.4
				c0-0.1,0-0.3,0-0.4c0-0.3-0.1-0.5-0.2-0.7c-0.1-0.2-0.3-0.4-0.5-0.5c-0.2-0.1-0.6-0.3-0.9-0.3c-0.4-0.1-0.8-0.1-1.4-0.1
				c-0.2,0-0.3,0-0.4,0c-0.1,0-0.2,0-0.3,0c-0.1,0-0.2,0-0.2,0c-0.1,0-0.2,0-0.3,0V33z"/>
		</g>
		<g class="st0">
			<path class="st1" d="M434.3,29.4c0,0.7-0.1,1.3-0.3,1.9s-0.5,1.1-0.9,1.5s-0.8,0.7-1.3,1c-0.5,0.2-1.1,0.4-1.8,0.4
				c-0.7,0-1.3-0.1-1.8-0.4c-0.5-0.2-1-0.6-1.3-1s-0.6-0.9-0.8-1.5s-0.3-1.2-0.3-1.9c0-0.7,0.1-1.3,0.3-1.9c0.2-0.6,0.5-1.1,0.9-1.5
				s0.8-0.7,1.3-1c0.5-0.2,1.1-0.4,1.8-0.4c0.7,0,1.3,0.1,1.8,0.4c0.5,0.2,1,0.6,1.3,1c0.4,0.4,0.6,0.9,0.8,1.5
				C434.2,28.1,434.3,28.7,434.3,29.4z M433.2,29.4c0-0.6-0.1-1.2-0.2-1.6c-0.2-0.5-0.4-0.9-0.7-1.2s-0.6-0.6-1-0.7
				c-0.4-0.2-0.8-0.2-1.2-0.2s-0.9,0.1-1.2,0.2c-0.4,0.2-0.7,0.4-1,0.7s-0.5,0.7-0.7,1.2c-0.2,0.5-0.2,1-0.2,1.6s0.1,1.2,0.2,1.6
				c0.2,0.5,0.4,0.9,0.7,1.2s0.6,0.6,1,0.7c0.4,0.2,0.8,0.2,1.2,0.2c0.4,0,0.9-0.1,1.2-0.2c0.4-0.2,0.7-0.4,1-0.7s0.5-0.7,0.7-1.2
				C433.1,30.6,433.2,30,433.2,29.4z"/>
		</g>
		<g class="st0">
			<path class="st1" d="M440.1,34H439v-8.1H436v-1h7.2v1h-3.1V34z"/>
		</g>
		<g class="st0">
			<path class="st1" d="M445.6,34v-9.1h1.1v4.5h0l4.2-4.5h1.1l-4.3,4.6l4.5,4.6h-1.1l-4.5-4.5h0V34H445.6z"/>
		</g>
		<g class="st0">
			<path class="st1" d="M453.3,34l3.7-9.1h1l3.7,9.1h-1.2l-1.1-2.8h-3.8l-1.1,2.8H453.3z M457.5,26.3c-0.4,1.1-0.8,2.2-1.2,3.1
				l-0.3,0.9h3l-0.3-0.9C458.3,28.4,458,27.4,457.5,26.3L457.5,26.3z"/>
		</g>
		<g class="st0">
			<path class="st1" d="M343.5,42.9h1.1V52h-1.1v-4.1c0-1.5,0-2.7,0.1-3.5h0c-0.4,0.7-1,1.5-1.6,2.5l-3.6,5.1h-1.1v-9.1h1.1v4.6
				c0,1.2,0,2.2-0.1,3h0c0.4-0.6,0.9-1.5,1.6-2.5L343.5,42.9z"/>
		</g>
		<g class="st0">
			<path class="st1" d="M357.9,42.9h1.1V52h-1.1v-4.1c0-1.5,0-2.7,0.1-3.5h0c-0.4,0.7-1,1.5-1.6,2.5l-3.6,5.1h-1.1v-9.1h1.1v4.6
				c0,1.2,0,2.2-0.1,3h0c0.4-0.6,0.9-1.5,1.6-2.5L357.9,42.9z"/>
		</g>
		<g class="st0">
			<path class="st1" d="M363.4,46.8h4.8v-4h1.1V52h-1.1v-4.2h-4.8V52h-1.1v-9.1h1.1V46.8z"/>
		</g>
		<g class="st0">
			<path class="st1" d="M375.2,52h-1.1v-8.1h-3.1v-1h7.2v1h-3.1V52z"/>
		</g>
		<g class="st0">
			<path class="st1" d="M381.8,51h4.7v1h-5.8v-9.1h5.6v1h-4.4v3h3.9v1h-3.9V51z"/>
		</g>
		<g class="st0">
			<path class="st1" d="M390.5,52h-1.1v-9.1h2.5c0.4,0,0.7,0,1,0.1c0.3,0,0.6,0.1,0.9,0.2c0.5,0.2,1,0.5,1.2,0.9
				c0.3,0.4,0.4,0.9,0.4,1.4c0,0.5-0.1,0.9-0.3,1.2c-0.2,0.4-0.5,0.6-0.8,0.9s-0.8,0.4-1.3,0.5c-0.5,0.1-1.1,0.2-1.7,0.2
				c-0.3,0-0.6,0-0.9,0V52z M390.5,47.2c0.2,0,0.3,0,0.5,0s0.3,0,0.5,0c0.5,0,1,0,1.3-0.1s0.7-0.2,0.9-0.4c0.2-0.2,0.4-0.3,0.5-0.6
				c0.1-0.2,0.2-0.5,0.2-0.8c0-0.4-0.1-0.6-0.3-0.9s-0.4-0.4-0.7-0.5c-0.2-0.1-0.4-0.1-0.7-0.2c-0.3,0-0.6,0-0.9,0h-1.3V47.2z"/>
		</g>
		<g class="st0">
			<path class="st1" d="M399.2,46.8h4.8v-4h1.1V52H404v-4.2h-4.8V52h-1.1v-9.1h1.1V46.8z"/>
		</g>
		<g class="st0">
			<path class="st1" d="M408.9,51h4.7v1h-5.8v-9.1h5.6v1h-4.4v3h3.9v1h-3.9V51z"/>
		</g>
		<g class="st0">
			<path class="st1" d="M419.7,52h-1.1v-8.1h-3.1v-1h7.2v1h-3.1V52z"/>
		</g>
		<g class="st0">
			<path class="st1" d="M424.8,48.1h3v1h-3V48.1z"/>
		</g>
		<g class="st0">
			<path class="st1" d="M435.7,52h-0.5l-2.3-5.5c-0.3-0.8-0.6-1.6-1-2.5h-0.1c0.1,1.3,0.1,2.4,0.1,3.5V52h-1.1v-9.1h1.6l2.2,5.2
				c0.2,0.6,0.5,1.3,0.8,2.1h0c0.3-0.9,0.6-1.6,0.8-2.1l2.2-5.2h1.6V52h-1.1v-4.4c0-1,0-2.2,0.1-3.5H439c-0.3,0.9-0.7,1.8-1,2.5
				L435.7,52z"/>
		</g>
		<g class="st0">
			<path class="st1" d="M442.6,52l3.7-9.1h1l3.7,9.1h-1.2l-1.1-2.8h-3.8l-1.1,2.8H442.6z M446.8,44.3c-0.4,1.1-0.8,2.2-1.2,3.1
				l-0.3,0.9h3l-0.3-0.9C447.6,46.4,447.3,45.4,446.8,44.3L446.8,44.3z"/>
		</g>
		<g class="st0">
			<path class="st1" d="M454.4,52h-1.1v-9.1h2.5c0.4,0,0.7,0,1,0.1c0.3,0,0.6,0.1,0.9,0.2c0.5,0.2,1,0.5,1.2,0.9
				c0.3,0.4,0.4,0.9,0.4,1.4c0,0.5-0.1,0.9-0.3,1.2c-0.2,0.4-0.5,0.6-0.8,0.9s-0.8,0.4-1.3,0.5c-0.5,0.1-1.1,0.2-1.7,0.2
				c-0.3,0-0.6,0-0.9,0V52z M454.4,47.2c0.2,0,0.3,0,0.5,0s0.3,0,0.5,0c0.5,0,1,0,1.3-0.1s0.7-0.2,0.9-0.4c0.2-0.2,0.4-0.3,0.5-0.6
				c0.1-0.2,0.2-0.5,0.2-0.8c0-0.4-0.1-0.6-0.3-0.9s-0.4-0.4-0.7-0.5c-0.2-0.1-0.4-0.1-0.7-0.2c-0.3,0-0.6,0-0.9,0h-1.3V47.2z"/>
		</g>
		<g class="st0">
			<path class="st1" d="M462,52v-9.1h1.1v4.5h0l4.2-4.5h1.1l-4.3,4.6l4.5,4.6h-1.1l-4.5-4.5h0V52H462z"/>
		</g>
		<g class="st0">
			<path class="st1" d="M471.8,51h4.7v1h-5.8v-9.1h5.6v1h-4.4v3h3.9v1h-3.9V51z"/>
		</g>
		<g class="st0">
			<path class="st1" d="M482.6,52h-1.1v-8.1h-3.1v-1h7.2v1h-3.1V52z"/>
		</g>
		<g class="st0">
			<path class="st1" d="M494.4,42.9h1.1V52h-1.1v-4.1c0-1.5,0-2.7,0.1-3.5h0c-0.4,0.7-1,1.5-1.6,2.5l-3.6,5.1h-1.1v-9.1h1.1v4.6
				c0,1.2,0,2.2-0.1,3h0c0.4-0.6,0.9-1.5,1.6-2.5L494.4,42.9z"/>
		</g>
		<g class="st0">
			<path class="st1" d="M499.9,46.8h4.8v-4h1.1V52h-1.1v-4.2h-4.8V52h-1.1v-9.1h1.1V46.8z"/>
		</g>
		<g class="st0">
			<path class="st1" d="M508.4,52v-9.1h5.8v1h-4.7V52H508.4z"/>
		</g>
	</g>
	<g id="Прямоугольник">
		<g>
			<rect x="265" y="33" class="st2" width="30" height="1"/>
		</g>
	</g>
	<g>
		<g>
			<g>
				<path class="st1" d="M104.7,21.1c1,0.9,1.5,2.3,1.5,4.1c0,2.1-0.6,3.7-1.9,4.9c-1.2,1.2-2.9,1.8-5.1,1.8H97v0.7l0.1,5.8h-2.4
					l0.1-5.6l-0.1-13.1l5.7,0C102.3,19.7,103.7,20.2,104.7,21.1z M103.8,25.4c0-2.4-1.3-3.7-3.9-3.8l-2.8,0.1L97,29.9l3.1,0.1
					C102.5,29.6,103.8,28,103.8,25.4z"/>
				<path class="st1" d="M113.7,38.4h-2.4l0.1-5.6l-0.1-13.1h2.4l-0.1,12.9L113.7,38.4z"/>
				<path class="st1" d="M129.9,20.4l-0.4,2.2l-0.4,0.1c-1.2-0.9-2.4-1.3-3.7-1.3c-0.7,0-1.3,0.1-1.9,0.4c-0.5,0.3-0.9,0.7-1.2,1.1
					c-0.3,0.5-0.4,1-0.4,1.5c0,0.5,0.2,1,0.5,1.4c0.3,0.4,0.7,0.7,1.2,1c0.5,0.3,1.1,0.6,2,1.1c1.1,0.5,1.9,0.9,2.5,1.4
					c0.6,0.4,1.2,0.9,1.7,1.6c0.5,0.6,0.7,1.4,0.7,2.3c0,1-0.3,1.9-0.8,2.7c-0.5,0.8-1.3,1.5-2.2,2c-1,0.5-2,0.7-3.3,0.7
					c-1.8,0-3.5-0.4-5-1.3l0.3-2.4l0.3-0.1c0.7,0.7,1.4,1.2,2.3,1.5c0.8,0.3,1.6,0.5,2.4,0.5c0.7,0,1.4-0.1,2-0.4
					c0.6-0.3,1-0.7,1.3-1.2c0.3-0.5,0.5-1,0.5-1.5c0-0.8-0.3-1.5-0.9-2c-0.6-0.5-1.6-1-2.8-1.6c-1-0.5-1.9-1-2.5-1.4
					c-0.6-0.4-1.2-0.9-1.6-1.5c-0.4-0.6-0.7-1.4-0.7-2.3c0-1,0.3-1.8,0.8-2.6c0.5-0.8,1.2-1.4,2.2-1.9c0.9-0.5,2-0.7,3.2-0.7
					C127.1,19.6,128.5,19.9,129.9,20.4z"/>
				<path class="st1" d="M141.8,38.4h-2.4l0.2-5.5l0-1.3l-6-12h2.5l0.4,1.1l4.1,8.4h0.2l4.5-8.4l0.4-1.1h2.5l-6.5,12l0,1.3
					L141.8,38.4z"/>
				<path class="st1" d="M162,20.4l-0.4,2.2l-0.4,0.1c-1.2-0.9-2.4-1.3-3.7-1.3c-0.7,0-1.3,0.1-1.9,0.4c-0.5,0.3-0.9,0.7-1.2,1.1
					c-0.3,0.5-0.4,1-0.4,1.5c0,0.5,0.2,1,0.5,1.4c0.3,0.4,0.7,0.7,1.2,1c0.5,0.3,1.1,0.6,2,1.1c1.1,0.5,1.9,0.9,2.5,1.4
					c0.6,0.4,1.2,0.9,1.7,1.6c0.5,0.6,0.7,1.4,0.7,2.3c0,1-0.3,1.9-0.8,2.7c-0.5,0.8-1.3,1.5-2.2,2c-1,0.5-2,0.7-3.3,0.7
					c-1.8,0-3.5-0.4-5-1.3l0.3-2.4l0.3-0.1c0.7,0.7,1.4,1.2,2.3,1.5c0.8,0.3,1.6,0.5,2.4,0.5c0.7,0,1.4-0.1,2-0.4
					c0.6-0.3,1-0.7,1.3-1.2c0.3-0.5,0.5-1,0.5-1.5c0-0.8-0.3-1.5-0.9-2c-0.6-0.5-1.6-1-2.8-1.6c-1-0.5-1.9-1-2.5-1.4
					c-0.6-0.4-1.2-0.9-1.6-1.5c-0.4-0.6-0.7-1.4-0.7-2.3c0-1,0.3-1.8,0.8-2.6c0.5-0.8,1.2-1.4,2.2-1.9c0.9-0.5,2-0.7,3.2-0.7
					C159.2,19.6,160.6,19.9,162,20.4z"/>
				<path class="st1" d="M178.3,21.8l-3.3-0.2h-1.9l-0.1,11l0.1,5.8h-2.4l0.2-5.6l-0.1-11.2h-1.9l-3.3,0.2l-0.1-0.2l0.2-1.8h12.7
					l0.2,0.2L178.3,21.8z"/>
				<path class="st1" d="M193.8,38.4h-10.5l0.1-5.6l-0.1-13.1h10.5l0.1,0.2l-0.2,1.8l-4.4-0.1l-3.7,0.1l-0.1,6.1l3.5,0.1l3.1-0.1
					l0.2,0.2l-0.2,1.8l-3.3-0.1l-3.3,0l0,2.8l0.1,3.9l3.7,0l4.5-0.1l0.1,0.2L193.8,38.4z"/>
				<path class="st1" d="M215.2,38.4l-0.4-5.7l-1-9.3h-0.2l-5.2,12.8h-1.9l-4.9-12.8h-0.2l-1,9.1l-0.5,5.9h-2l2-18.7h2.7l1,2.9
					l4.1,10.7h0.2l4.3-10.8l1-2.7h2.6l1.8,18.7H215.2z"/>
				<path class="st1" d="M232.5,20.4l-0.4,2.2l-0.4,0.1c-1.2-0.9-2.4-1.3-3.7-1.3c-0.7,0-1.3,0.1-1.9,0.4c-0.5,0.3-0.9,0.7-1.2,1.1
					c-0.3,0.5-0.4,1-0.4,1.5c0,0.5,0.2,1,0.5,1.4c0.3,0.4,0.7,0.7,1.2,1c0.5,0.3,1.1,0.6,2,1.1c1.1,0.5,1.9,0.9,2.5,1.4
					c0.6,0.4,1.2,0.9,1.6,1.6c0.5,0.6,0.7,1.4,0.7,2.3c0,1-0.3,1.9-0.8,2.7c-0.5,0.8-1.3,1.5-2.2,2c-1,0.5-2,0.7-3.3,0.7
					c-1.8,0-3.5-0.4-5-1.3l0.3-2.4l0.3-0.1c0.7,0.7,1.4,1.2,2.3,1.5c0.8,0.3,1.6,0.5,2.4,0.5c0.7,0,1.4-0.1,2-0.4
					c0.6-0.3,1-0.7,1.3-1.2c0.3-0.5,0.5-1,0.5-1.5c0-0.8-0.3-1.5-0.9-2c-0.6-0.5-1.6-1-2.8-1.6c-1-0.5-1.9-1-2.5-1.4
					c-0.6-0.4-1.2-0.9-1.6-1.5c-0.4-0.6-0.7-1.4-0.7-2.3c0-1,0.3-1.8,0.8-2.6c0.5-0.8,1.2-1.4,2.2-1.9c0.9-0.5,2-0.7,3.2-0.7
					C229.7,19.6,231.1,19.9,232.5,20.4z"/>
			</g>
			<g>
				<path class="st3" d="M96,53.9h-1v-8.6h2.4c0.4,0,0.7,0,1,0.1c0.3,0,0.6,0.1,0.8,0.2c0.5,0.2,0.9,0.5,1.2,0.8
					c0.3,0.4,0.4,0.8,0.4,1.4c0,0.4-0.1,0.8-0.3,1.2c-0.2,0.3-0.4,0.6-0.8,0.8c-0.3,0.2-0.7,0.4-1.2,0.5c-0.5,0.1-1,0.2-1.6,0.2
					c-0.3,0-0.6,0-0.9,0V53.9z M96,49.4c0.1,0,0.3,0,0.4,0c0.2,0,0.3,0,0.4,0c0.5,0,0.9,0,1.3-0.1c0.3-0.1,0.6-0.2,0.8-0.3
					c0.2-0.1,0.4-0.3,0.5-0.5c0.1-0.2,0.1-0.5,0.1-0.7c0-0.3-0.1-0.6-0.2-0.8c-0.2-0.2-0.4-0.4-0.7-0.5c-0.2-0.1-0.4-0.1-0.6-0.1
					c-0.2,0-0.5,0-0.8,0H96V49.4z"/>
				<path class="st3" d="M103.4,53h4.4v0.9h-5.4v-8.6h5.2v0.9h-4.2v2.8h3.7V50h-3.7V53z"/>
				<path class="st3" d="M119.5,53.9h-9.8v-8.6h1V53h3.4v-7.6h1V53h3.4v-7.6h1V53.9z"/>
				<path class="st3" d="M122.7,53h4.4v0.9h-5.4v-8.6h5.2v0.9h-4.2v2.8h3.7V50h-3.7V53z"/>
				<path class="st3" d="M130,49.1h4.5v-3.7h1v8.6h-1V50H130v3.9h-1v-8.6h1V49.1z"/>
				<path class="st3" d="M143.6,45.3h1.1v8.6h-1V50c0-1.4,0-2.5,0.1-3.2h0c-0.4,0.6-0.9,1.4-1.5,2.3l-3.4,4.8h-1.1v-8.6h1v4.3
					c0,1.1,0,2-0.1,2.8h0c0.4-0.6,0.9-1.4,1.5-2.3L143.6,45.3z"/>
				<path class="st3" d="M147.9,53h4.4v0.9h-5.4v-8.6h5.2v0.9h-4.2v2.8h3.7V50h-3.7V53z"/>
				<path class="st3" d="M157.8,53h4.4v0.9h-5.4v-8.6h5.2v0.9h-4.2v2.8h3.7V50h-3.7V53z"/>
				<path class="st3" d="M168.1,46.1c-0.5,0-0.9,0.1-1.3,0.2c-0.4,0.2-0.8,0.4-1.1,0.7c-0.3,0.3-0.5,0.7-0.7,1.1
					c-0.2,0.4-0.3,1-0.3,1.6c0,0.6,0.1,1.1,0.2,1.5c0.2,0.4,0.4,0.8,0.7,1.1c0.3,0.3,0.7,0.5,1.1,0.6c0.4,0.1,0.9,0.2,1.4,0.2
					c0.1,0,0.3,0,0.5,0c0.2,0,0.3,0,0.5-0.1c0.2,0,0.3-0.1,0.5-0.1c0.2,0,0.3-0.1,0.4-0.1v0.9c-0.3,0.1-0.5,0.2-0.9,0.2
					c-0.3,0.1-0.7,0.1-1,0.1c-0.7,0-1.3-0.1-1.9-0.3c-0.6-0.2-1-0.5-1.4-0.9c-0.4-0.4-0.7-0.8-0.9-1.4c-0.2-0.5-0.3-1.1-0.3-1.8
					c0-0.7,0.1-1.3,0.3-1.8c0.2-0.6,0.5-1,0.9-1.4c0.4-0.4,0.8-0.7,1.4-0.9c0.5-0.2,1.2-0.3,1.8-0.3c0.2,0,0.4,0,0.5,0
					c0.2,0,0.3,0,0.5,0.1c0.2,0,0.3,0.1,0.4,0.1c0.1,0,0.3,0.1,0.4,0.1v0.9c-0.3-0.1-0.5-0.2-0.9-0.2
					C168.7,46.1,168.4,46.1,168.1,46.1z"/>
				<path class="st3" d="M174.8,53.9h-1v-7.6h-2.9v-0.9h6.8v0.9h-2.9V53.9z"/>
				<path class="st3" d="M180,48.8c0.2,0,0.4,0,0.5,0c0.1,0,0.2,0,0.3,0c0.1,0,0.2,0,0.4,0c0.3,0,0.6,0,0.8,0c0.3,0,0.5,0,0.7,0.1
					c0.4,0.1,0.8,0.2,1.1,0.3c0.3,0.1,0.5,0.3,0.7,0.5c0.2,0.2,0.3,0.4,0.4,0.7c0.1,0.3,0.1,0.5,0.1,0.9c0,0.2,0,0.5-0.1,0.7
					c-0.1,0.2-0.2,0.5-0.3,0.7s-0.4,0.4-0.6,0.6c-0.3,0.2-0.6,0.3-1,0.5c-0.2,0.1-0.5,0.1-0.9,0.2c-0.3,0-0.7,0.1-1.2,0.1h-2v-8.6h1
					V48.8z M180,53h1.1c0.4,0,0.8,0,1.1-0.1c0.3-0.1,0.6-0.1,0.8-0.2s0.4-0.2,0.5-0.3c0.1-0.1,0.2-0.2,0.3-0.4
					c0.1-0.1,0.1-0.3,0.1-0.4c0-0.1,0-0.2,0-0.4c0-0.2,0-0.4-0.1-0.5c-0.1-0.2-0.2-0.3-0.3-0.4c-0.1-0.1-0.3-0.2-0.5-0.3
					c-0.2-0.1-0.4-0.2-0.7-0.2c-0.2,0-0.4-0.1-0.6-0.1c-0.2,0-0.4,0-0.7,0c-0.1,0-0.2,0-0.3,0c-0.1,0-0.2,0-0.3,0
					c-0.1,0-0.3,0-0.5,0V53z"/>
				<path class="st3" d="M193.7,49.5c0.3,0,0.5,0.1,0.7,0.2c0.2,0.1,0.4,0.2,0.5,0.4s0.3,0.4,0.4,0.6c0.1,0.2,0.1,0.5,0.1,0.8
					c0,0.2,0,0.4-0.1,0.6c-0.1,0.2-0.2,0.4-0.3,0.6c-0.1,0.2-0.3,0.4-0.5,0.6c-0.2,0.2-0.5,0.3-0.8,0.4c-0.3,0.1-0.5,0.1-0.8,0.2
					c-0.3,0-0.7,0.1-1.1,0.1h-2.2v-8.6h2.1c0.2,0,0.4,0,0.5,0c0.2,0,0.3,0,0.4,0c0.1,0,0.3,0,0.4,0c0.1,0,0.2,0,0.3,0.1
					c0.3,0.1,0.5,0.2,0.7,0.3c0.2,0.1,0.4,0.3,0.6,0.5c0.2,0.2,0.3,0.4,0.4,0.6c0.1,0.2,0.1,0.5,0.1,0.7c0,0.2,0,0.4-0.1,0.6
					c0,0.2-0.1,0.4-0.2,0.5c-0.1,0.2-0.2,0.3-0.4,0.4C194.1,49.3,193.9,49.4,193.7,49.5L193.7,49.5z M192.1,49.1c0.2,0,0.4,0,0.5,0
					c0.1,0,0.3,0,0.4-0.1c0.3-0.1,0.6-0.3,0.7-0.5c0.1-0.2,0.2-0.5,0.2-0.8c0-0.3-0.1-0.6-0.2-0.8s-0.4-0.4-0.7-0.4
					c-0.2,0-0.4-0.1-0.6-0.1c-0.2,0-0.5,0-0.8,0h-1.2v2.8H192.1z M190.5,50v3h1.3c0.3,0,0.6,0,0.8,0c0.3,0,0.5-0.1,0.7-0.1
					c0.2-0.1,0.4-0.1,0.5-0.2s0.2-0.2,0.3-0.3c0.1-0.1,0.1-0.3,0.2-0.4c0-0.1,0.1-0.3,0.1-0.4c0-0.2,0-0.3-0.1-0.5
					c0-0.1-0.1-0.3-0.2-0.4c-0.1-0.1-0.2-0.2-0.3-0.3c-0.1-0.1-0.3-0.2-0.5-0.2c-0.1,0-0.3-0.1-0.4-0.1c-0.2,0-0.4,0-0.6,0H190.5z"
					/>
				<path class="st3" d="M201.4,46.1c-0.5,0-0.9,0.1-1.3,0.2c-0.4,0.2-0.8,0.4-1.1,0.7c-0.3,0.3-0.5,0.7-0.7,1.1
					c-0.2,0.4-0.3,1-0.3,1.6c0,0.6,0.1,1.1,0.2,1.5c0.2,0.4,0.4,0.8,0.7,1.1c0.3,0.3,0.7,0.5,1.1,0.6c0.4,0.1,0.9,0.2,1.4,0.2
					c0.1,0,0.3,0,0.5,0c0.2,0,0.3,0,0.5-0.1c0.2,0,0.3-0.1,0.5-0.1c0.2,0,0.3-0.1,0.4-0.1v0.9c-0.3,0.1-0.5,0.2-0.9,0.2
					c-0.3,0.1-0.7,0.1-1,0.1c-0.7,0-1.3-0.1-1.9-0.3c-0.6-0.2-1-0.5-1.4-0.9c-0.4-0.4-0.7-0.8-0.9-1.4c-0.2-0.5-0.3-1.1-0.3-1.8
					c0-0.7,0.1-1.3,0.3-1.8c0.2-0.6,0.5-1,0.9-1.4c0.4-0.4,0.8-0.7,1.4-0.9c0.5-0.2,1.2-0.3,1.8-0.3c0.2,0,0.4,0,0.5,0
					c0.2,0,0.3,0,0.5,0.1c0.2,0,0.3,0.1,0.4,0.1c0.1,0,0.3,0.1,0.4,0.1v0.9c-0.3-0.1-0.5-0.2-0.9-0.2
					C202,46.1,201.7,46.1,201.4,46.1z"/>
				<path class="st3" d="M206.1,53h4.4v0.9H205v-8.6h5.2v0.9h-4.2v2.8h3.7V50h-3.7V53z"/>
				<path class="st3" d="M212.2,53.9v-8.6h5.5v0.9h-4.4v7.6H212.2z"/>
				<path class="st3" d="M217.6,53c0.4-0.5,0.7-0.9,1-1.5c0.3-0.5,0.6-1.1,0.8-1.7c0.2-0.6,0.5-1.3,0.6-2s0.3-1.5,0.4-2.4h4V53h1
					v3.8h-1v-2.8h-6.2v2.8h-1V53H217.6z M221.5,46.3c-0.1,0.7-0.2,1.4-0.4,2c-0.2,0.6-0.4,1.2-0.6,1.7c-0.2,0.5-0.5,1-0.8,1.5
					c-0.3,0.5-0.6,0.9-1,1.4v0h4.8v-6.7H221.5z"/>
				<path class="st3" d="M226.5,53.9l3.5-8.6h0.9l3.5,8.6h-1.1l-1-2.6h-3.6l-1,2.6H226.5z M230.5,46.7c-0.4,1.1-0.7,2-1.1,2.9
					l-0.3,0.8h2.8l-0.3-0.8C231.2,48.7,230.9,47.7,230.5,46.7L230.5,46.7z"/>
			</g>
		</g>
		<circle class="st1" cx="36.5" cy="36.5" r="36.5"/>
		<path class="st4" d="M66.1,7.5v59.1H6.9V7.5H66.1 M67.5,6.1h-62v62h62V6.1L67.5,6.1z"/>
		<g>
			<path class="st5" d="M30.5,44l-0.3-0.4c0.9-2.2,2-5.9,3.4-11.1l0.1-0.5c-1.9,0-3.1,0.3-3.7,0.7c-0.6,0.4-1,1.4-1.1,2.8l-0.5-0.2
				c0-1.6,0.1-2.7,0.2-3.4s0.4-1.1,0.7-1.4c0.3-0.3,0.9-0.4,1.7-0.4l3.3,0.1c1.2,0,2.5,0,3.8,0c3.1,0,5.5-0.1,7.1-0.2l-0.7,1.5
				L42.2,32c-0.7,2.1-1.1,3.9-1.1,5.6c0,1.1,0.1,2.1,0.4,2.9c0.3,0.8,0.6,1.4,1,1.7c0.4,0.3,0.8,0.5,1.2,0.5c0.3,0,0.6-0.1,0.8-0.2
				c0.2-0.1,0.6-0.3,1-0.7l0.1,0.5c-0.6,0.6-1.1,1.1-1.6,1.4c-0.5,0.3-1.1,0.5-1.7,0.5c-0.5,0-0.9-0.1-1.3-0.3
				c-0.4-0.2-0.7-0.6-1-1.1c-0.3-0.5-0.5-1.1-0.7-1.7c-0.1-0.6-0.2-1.3-0.2-2c0-2.1,0.6-4.4,1.8-7.1h-6.3c-1,3.8-1.7,7.6-2.2,11.3
				C31.8,43.5,31.1,43.8,30.5,44z"/>
		</g>
	</g>
	<path class="st4" d="M539,10v56H323V10H539 M541,8H321v60h220V8L541,8z"/>
</g>
</svg>
