<?xml version="1.0" encoding="utf-8"?>
<!-- Generator: Adobe Illustrator 20.0.0, SVG Export Plug-In . SVG Version: 6.00 Build 0)  -->
<svg version="1.1" id="Слой_1_2_" xmlns="http://www.w3.org/2000/svg" xmlns:xlink="http://www.w3.org/1999/xlink" x="0px"
	 y="0px" viewBox="0 0 276 60" style="enable-background:new 0 0 276 60;" xml:space="preserve">
<style type="text/css">
	.st0{enable-background:new    ;}
	.st1{fill:#FFFFFF;}
	.st2{fill:#EEEEEE;}
	.st3{fill:#00ADAA;enable-background:new    ;}
</style>
<g>
	<g id="WEB-РАЗРАБОТКА__И_ИН_1_">
		<g class="st0">
			<path class="st1" d="M77.1,18.4c-0.1,0.4-0.2,1.2-0.5,2.2L75.2,26h-1.1l-2.8-9.1h1.1l1.6,5.4c0.3,0.9,0.5,1.6,0.6,2.3h0
				c0.1-0.4,0.2-0.8,0.3-1.2c0.1-0.4,0.2-0.8,0.3-1.1l1.4-5.4h1.1l1.4,5.4c0.3,1.3,0.5,2.1,0.6,2.3h0c0.2-0.6,0.4-1.4,0.6-2.3
				l1.6-5.4H83L80.2,26h-1.1l-1.4-5.4C77.4,19.6,77.2,18.8,77.1,18.4L77.1,18.4z"/>
		</g>
		<g class="st0">
			<path class="st1" d="M86,25h4.7v1h-5.8v-9.1h5.6v1H86v3h3.9v1H86V25z"/>
		</g>
		<g class="st0">
			<path class="st1" d="M98,21.3c0.3,0,0.5,0.1,0.8,0.2s0.4,0.2,0.6,0.4c0.2,0.2,0.3,0.4,0.4,0.6c0.1,0.2,0.1,0.5,0.1,0.8
				c0,0.2,0,0.4-0.1,0.7c-0.1,0.2-0.2,0.5-0.3,0.7c-0.1,0.2-0.3,0.4-0.6,0.6s-0.5,0.3-0.9,0.5c-0.3,0.1-0.6,0.2-0.9,0.2
				c-0.3,0-0.7,0.1-1.2,0.1h-2.3v-9.1h2.3c0.2,0,0.4,0,0.6,0c0.2,0,0.3,0,0.5,0c0.1,0,0.3,0,0.4,0.1c0.1,0,0.2,0,0.3,0.1
				c0.3,0.1,0.5,0.2,0.8,0.3c0.2,0.1,0.4,0.3,0.6,0.5s0.3,0.4,0.4,0.6s0.1,0.5,0.1,0.8c0,0.2,0,0.4-0.1,0.6s-0.1,0.4-0.3,0.6
				s-0.3,0.3-0.5,0.5S98.3,21.2,98,21.3L98,21.3z M96.4,20.8c0.2,0,0.4,0,0.6,0c0.2,0,0.3-0.1,0.4-0.1c0.3-0.1,0.6-0.3,0.7-0.5
				s0.2-0.5,0.2-0.9c0-0.3-0.1-0.6-0.2-0.8s-0.4-0.4-0.8-0.5c-0.2,0-0.4-0.1-0.6-0.1c-0.2,0-0.5,0-0.8,0h-1.3v3H96.4z M94.7,21.8V25
				H96c0.3,0,0.6,0,0.9,0c0.3,0,0.5-0.1,0.7-0.1c0.2-0.1,0.4-0.2,0.5-0.3c0.1-0.1,0.3-0.2,0.4-0.4c0.1-0.1,0.2-0.3,0.2-0.4
				s0.1-0.3,0.1-0.4c0-0.2,0-0.3-0.1-0.5c0-0.2-0.1-0.3-0.2-0.4c-0.1-0.1-0.2-0.2-0.4-0.3s-0.3-0.2-0.6-0.2c-0.1,0-0.3-0.1-0.5-0.1
				s-0.4,0-0.7,0H94.7z"/>
		</g>
		<g class="st0">
			<path class="st1" d="M101.9,22.1h3v1h-3V22.1z"/>
		</g>
		<g class="st0">
			<path class="st1" d="M109.1,26H108v-9.1h2.5c0.4,0,0.7,0,1,0.1c0.3,0,0.6,0.1,0.9,0.2c0.5,0.2,1,0.5,1.2,0.9
				c0.3,0.4,0.4,0.9,0.4,1.4c0,0.5-0.1,0.9-0.3,1.2c-0.2,0.4-0.5,0.6-0.8,0.9s-0.8,0.4-1.3,0.5c-0.5,0.1-1.1,0.2-1.7,0.2
				c-0.3,0-0.6,0-0.9,0V26z M109.1,21.2c0.2,0,0.3,0,0.5,0s0.3,0,0.5,0c0.5,0,1,0,1.3-0.1s0.7-0.2,0.9-0.4c0.2-0.2,0.4-0.3,0.5-0.6
				c0.1-0.2,0.2-0.5,0.2-0.8c0-0.4-0.1-0.6-0.3-0.9s-0.4-0.4-0.7-0.5c-0.2-0.1-0.4-0.1-0.7-0.2c-0.3,0-0.6,0-0.9,0h-1.3V21.2z"/>
		</g>
		<g class="st0">
			<path class="st1" d="M115.7,26l3.7-9.1h1l3.7,9.1h-1.2l-1.1-2.8H118l-1.1,2.8H115.7z M119.9,18.3c-0.4,1.1-0.8,2.2-1.2,3.1
				l-0.3,0.9h3l-0.3-0.9C120.7,20.4,120.4,19.4,119.9,18.3L119.9,18.3z"/>
		</g>
		<g class="st0">
			<path class="st1" d="M126,17.2c0.1-0.1,0.3-0.1,0.5-0.2c0.2-0.1,0.4-0.1,0.6-0.2c0.2-0.1,0.5-0.1,0.7-0.1c0.3,0,0.5-0.1,0.8-0.1
				c0.5,0,0.9,0.1,1.3,0.2s0.7,0.3,1,0.5c0.3,0.2,0.5,0.5,0.6,0.8s0.2,0.7,0.2,1.1c0,0.3,0,0.5-0.1,0.8c-0.1,0.2-0.2,0.4-0.3,0.6
				c-0.1,0.2-0.3,0.3-0.5,0.4c-0.2,0.1-0.4,0.2-0.6,0.3v0c0.2,0.1,0.5,0.1,0.7,0.2c0.2,0.1,0.4,0.2,0.6,0.4c0.2,0.2,0.3,0.4,0.4,0.6
				c0.1,0.2,0.1,0.5,0.1,0.8c0,0.4-0.1,0.7-0.2,1.1c-0.1,0.3-0.4,0.6-0.7,0.9c-0.3,0.3-0.7,0.5-1.1,0.6c-0.5,0.1-1,0.2-1.7,0.2
				c-0.5,0-1,0-1.4-0.1c-0.4-0.1-0.8-0.2-1.1-0.4v-1c0.3,0.2,0.7,0.3,1.1,0.4s0.8,0.1,1.3,0.1c0.9,0,1.5-0.2,2-0.5
				c0.4-0.3,0.7-0.8,0.7-1.4c0-0.5-0.2-0.9-0.6-1.1c-0.4-0.3-0.9-0.4-1.7-0.4h-1v-1h0.9c0.4,0,0.7,0,1-0.1c0.3-0.1,0.5-0.2,0.6-0.3
				c0.2-0.1,0.3-0.3,0.3-0.5c0.1-0.2,0.1-0.4,0.1-0.6c0-0.2,0-0.4-0.1-0.6s-0.2-0.4-0.4-0.5c-0.2-0.1-0.4-0.2-0.7-0.3
				s-0.6-0.1-1-0.1c-0.4,0-0.8,0-1.2,0.1c-0.4,0.1-0.8,0.2-1.2,0.4V17.2z"/>
		</g>
		<g class="st0">
			<path class="st1" d="M135.2,26h-1.1v-9.1h2.5c0.4,0,0.7,0,1,0.1s0.6,0.1,0.9,0.2c0.5,0.2,1,0.5,1.2,0.9c0.3,0.4,0.4,0.9,0.4,1.4
				c0,0.5-0.1,0.9-0.3,1.2c-0.2,0.4-0.5,0.6-0.8,0.9s-0.8,0.4-1.3,0.5c-0.5,0.1-1.1,0.2-1.7,0.2c-0.3,0-0.6,0-0.9,0V26z M135.2,21.2
				c0.2,0,0.3,0,0.5,0s0.3,0,0.5,0c0.5,0,1,0,1.3-0.1s0.7-0.2,0.9-0.4c0.2-0.2,0.4-0.3,0.5-0.6c0.1-0.2,0.2-0.5,0.2-0.8
				c0-0.4-0.1-0.6-0.3-0.9s-0.4-0.4-0.7-0.5c-0.2-0.1-0.4-0.1-0.7-0.2c-0.3,0-0.6,0-0.9,0h-1.3V21.2z"/>
		</g>
		<g class="st0">
			<path class="st1" d="M141.8,26l3.7-9.1h1l3.7,9.1H149l-1.1-2.8h-3.8L143,26H141.8z M146,18.3c-0.4,1.1-0.8,2.2-1.2,3.1l-0.3,0.9
				h3l-0.3-0.9C146.8,20.4,146.5,19.4,146,18.3L146,18.3z"/>
		</g>
		<g class="st0">
			<path class="st1" d="M154.8,20.5c0.7,0,1.4,0.1,1.9,0.2c0.5,0.1,1,0.3,1.3,0.5c0.3,0.2,0.6,0.5,0.7,0.8c0.2,0.3,0.2,0.7,0.2,1.1
				c0,0.2,0,0.4-0.1,0.7c0,0.2-0.1,0.4-0.3,0.7s-0.3,0.4-0.5,0.6c-0.2,0.2-0.5,0.4-0.8,0.5s-0.7,0.3-1.1,0.3s-1,0.1-1.6,0.1h-2.2
				v-9.1h5.9v1h-4.8v2.7c0.1,0,0.1,0,0.2,0c0.1,0,0.2,0,0.3,0c0.1,0,0.2,0,0.3,0C154.5,20.5,154.7,20.5,154.8,20.5z M153.6,25h1.2
				c0.5,0,0.9,0,1.2-0.1c0.3-0.1,0.6-0.1,0.8-0.2c0.2-0.1,0.4-0.2,0.5-0.3c0.1-0.1,0.2-0.3,0.3-0.4c0.1-0.1,0.1-0.3,0.1-0.4
				c0-0.1,0-0.3,0-0.4c0-0.3-0.1-0.5-0.2-0.7c-0.1-0.2-0.3-0.4-0.5-0.5c-0.2-0.1-0.6-0.3-0.9-0.3c-0.4-0.1-0.8-0.1-1.4-0.1
				c-0.2,0-0.3,0-0.4,0c-0.1,0-0.2,0-0.3,0c-0.1,0-0.2,0-0.2,0c-0.1,0-0.2,0-0.3,0V25z"/>
		</g>
		<g class="st0">
			<path class="st1" d="M169.3,21.4c0,0.7-0.1,1.3-0.3,1.9s-0.5,1.1-0.9,1.5s-0.8,0.7-1.3,1c-0.5,0.2-1.1,0.4-1.8,0.4
				c-0.7,0-1.3-0.1-1.8-0.4c-0.5-0.2-1-0.6-1.3-1s-0.6-0.9-0.8-1.5s-0.3-1.2-0.3-1.9c0-0.7,0.1-1.3,0.3-1.9c0.2-0.6,0.5-1.1,0.9-1.5
				s0.8-0.7,1.3-1c0.5-0.2,1.1-0.4,1.8-0.4c0.7,0,1.3,0.1,1.8,0.4c0.5,0.2,1,0.6,1.3,1c0.4,0.4,0.6,0.9,0.8,1.5
				C169.2,20.1,169.3,20.7,169.3,21.4z M168.2,21.4c0-0.6-0.1-1.2-0.2-1.6c-0.2-0.5-0.4-0.9-0.7-1.2s-0.6-0.6-1-0.7
				c-0.4-0.2-0.8-0.2-1.2-0.2s-0.9,0.1-1.2,0.2c-0.4,0.2-0.7,0.4-1,0.7s-0.5,0.7-0.7,1.2c-0.2,0.5-0.2,1-0.2,1.6s0.1,1.2,0.2,1.6
				c0.2,0.5,0.4,0.9,0.7,1.2s0.6,0.6,1,0.7c0.4,0.2,0.8,0.2,1.2,0.2c0.4,0,0.9-0.1,1.2-0.2c0.4-0.2,0.7-0.4,1-0.7s0.5-0.7,0.7-1.2
				C168.1,22.6,168.2,22,168.2,21.4z"/>
		</g>
		<g class="st0">
			<path class="st1" d="M175.1,26H174v-8.1H171v-1h7.2v1h-3.1V26z"/>
		</g>
		<g class="st0">
			<path class="st1" d="M180.6,26v-9.1h1.1v4.5h0l4.2-4.5h1.1l-4.3,4.6l4.5,4.6h-1.1l-4.5-4.5h0V26H180.6z"/>
		</g>
		<g class="st0">
			<path class="st1" d="M188.3,26l3.7-9.1h1l3.7,9.1h-1.2l-1.1-2.8h-3.8l-1.1,2.8H188.3z M192.5,18.3c-0.4,1.1-0.8,2.2-1.2,3.1
				l-0.3,0.9h3l-0.3-0.9C193.3,20.4,193,19.4,192.5,18.3L192.5,18.3z"/>
		</g>
		<g class="st0">
			<path class="st1" d="M78.5,34.9h1.1V44h-1.1v-4.1c0-1.5,0-2.7,0.1-3.5h0c-0.4,0.7-1,1.5-1.6,2.5L73.3,44h-1.1v-9.1h1.1v4.6
				c0,1.2,0,2.2-0.1,3h0c0.4-0.6,0.9-1.5,1.6-2.5L78.5,34.9z"/>
		</g>
		<g class="st0">
			<path class="st1" d="M92.9,34.9H94V44h-1.1v-4.1c0-1.5,0-2.7,0.1-3.5h0c-0.4,0.7-1,1.5-1.6,2.5L87.7,44h-1.1v-9.1h1.1v4.6
				c0,1.2,0,2.2-0.1,3h0c0.4-0.6,0.9-1.5,1.6-2.5L92.9,34.9z"/>
		</g>
		<g class="st0">
			<path class="st1" d="M98.4,38.8h4.8v-4h1.1V44h-1.1v-4.2h-4.8V44h-1.1v-9.1h1.1V38.8z"/>
		</g>
		<g class="st0">
			<path class="st1" d="M110.2,44h-1.1v-8.1h-3.1v-1h7.2v1h-3.1V44z"/>
		</g>
		<g class="st0">
			<path class="st1" d="M116.8,43h4.7v1h-5.8v-9.1h5.6v1h-4.4v3h3.9v1h-3.9V43z"/>
		</g>
		<g class="st0">
			<path class="st1" d="M125.5,44h-1.1v-9.1h2.5c0.4,0,0.7,0,1,0.1c0.3,0,0.6,0.1,0.9,0.2c0.5,0.2,1,0.5,1.2,0.9
				c0.3,0.4,0.4,0.9,0.4,1.4c0,0.5-0.1,0.9-0.3,1.2c-0.2,0.4-0.5,0.6-0.8,0.9s-0.8,0.4-1.3,0.5c-0.5,0.1-1.1,0.2-1.7,0.2
				c-0.3,0-0.6,0-0.9,0V44z M125.5,39.2c0.2,0,0.3,0,0.5,0s0.3,0,0.5,0c0.5,0,1,0,1.3-0.1s0.7-0.2,0.9-0.4c0.2-0.2,0.4-0.3,0.5-0.6
				c0.1-0.2,0.2-0.5,0.2-0.8c0-0.4-0.1-0.6-0.3-0.9s-0.4-0.4-0.7-0.5c-0.2-0.1-0.4-0.1-0.7-0.2c-0.3,0-0.6,0-0.9,0h-1.3V39.2z"/>
		</g>
		<g class="st0">
			<path class="st1" d="M134.2,38.8h4.8v-4h1.1V44H139v-4.2h-4.8V44h-1.1v-9.1h1.1V38.8z"/>
		</g>
		<g class="st0">
			<path class="st1" d="M143.9,43h4.7v1h-5.8v-9.1h5.6v1h-4.4v3h3.9v1h-3.9V43z"/>
		</g>
		<g class="st0">
			<path class="st1" d="M154.7,44h-1.1v-8.1h-3.1v-1h7.2v1h-3.1V44z"/>
		</g>
		<g class="st0">
			<path class="st1" d="M159.8,40.1h3v1h-3V40.1z"/>
		</g>
		<g class="st0">
			<path class="st1" d="M170.7,44h-0.5l-2.3-5.5c-0.3-0.8-0.6-1.6-1-2.5h-0.1c0.1,1.3,0.1,2.4,0.1,3.5V44h-1.1v-9.1h1.6l2.2,5.2
				c0.2,0.6,0.5,1.3,0.8,2.1h0c0.3-0.9,0.6-1.6,0.8-2.1l2.2-5.2h1.6V44h-1.1v-4.4c0-1,0-2.2,0.1-3.5H174c-0.3,0.9-0.7,1.8-1,2.5
				L170.7,44z"/>
		</g>
		<g class="st0">
			<path class="st1" d="M177.6,44l3.7-9.1h1l3.7,9.1h-1.2l-1.1-2.8h-3.8l-1.1,2.8H177.6z M181.8,36.3c-0.4,1.1-0.8,2.2-1.2,3.1
				l-0.3,0.9h3l-0.3-0.9C182.6,38.4,182.3,37.4,181.8,36.3L181.8,36.3z"/>
		</g>
		<g class="st0">
			<path class="st1" d="M189.4,44h-1.1v-9.1h2.5c0.4,0,0.7,0,1,0.1c0.3,0,0.6,0.1,0.9,0.2c0.5,0.2,1,0.5,1.2,0.9
				c0.3,0.4,0.4,0.9,0.4,1.4c0,0.5-0.1,0.9-0.3,1.2c-0.2,0.4-0.5,0.6-0.8,0.9s-0.8,0.4-1.3,0.5c-0.5,0.1-1.1,0.2-1.7,0.2
				c-0.3,0-0.6,0-0.9,0V44z M189.4,39.2c0.2,0,0.3,0,0.5,0s0.3,0,0.5,0c0.5,0,1,0,1.3-0.1s0.7-0.2,0.9-0.4c0.2-0.2,0.4-0.3,0.5-0.6
				c0.1-0.2,0.2-0.5,0.2-0.8c0-0.4-0.1-0.6-0.3-0.9s-0.4-0.4-0.7-0.5c-0.2-0.1-0.4-0.1-0.7-0.2c-0.3,0-0.6,0-0.9,0h-1.3V39.2z"/>
		</g>
		<g class="st0">
			<path class="st1" d="M197,44v-9.1h1.1v4.5h0l4.2-4.5h1.1l-4.3,4.6l4.5,4.6h-1.1l-4.5-4.5h0V44H197z"/>
		</g>
		<g class="st0">
			<path class="st1" d="M206.8,43h4.7v1h-5.8v-9.1h5.6v1h-4.4v3h3.9v1h-3.9V43z"/>
		</g>
		<g class="st0">
			<path class="st1" d="M217.6,44h-1.1v-8.1h-3.1v-1h7.2v1h-3.1V44z"/>
		</g>
		<g class="st0">
			<path class="st1" d="M229.4,34.9h1.1V44h-1.1v-4.1c0-1.5,0-2.7,0.1-3.5h0c-0.4,0.7-1,1.5-1.6,2.5l-3.6,5.1h-1.1v-9.1h1.1v4.6
				c0,1.2,0,2.2-0.1,3h0c0.4-0.6,0.9-1.5,1.6-2.5L229.4,34.9z"/>
		</g>
		<g class="st0">
			<path class="st1" d="M234.9,38.8h4.8v-4h1.1V44h-1.1v-4.2h-4.8V44h-1.1v-9.1h1.1V38.8z"/>
		</g>
		<g class="st0">
			<path class="st1" d="M243.4,44v-9.1h5.8v1h-4.7V44H243.4z"/>
		</g>
	</g>
	<g id="Прямоугольник">
		<g>
			<rect y="25" class="st2" width="30" height="1"/>
		</g>
	</g>
	<path class="st3" d="M274,2v56H58V2H274 M276,0H56v60h220V0L276,0z"/>
</g>
</svg>
