<?xml version="1.0" encoding="utf-8"?>
<!-- Generator: Adobe Illustrator 20.0.0, SVG Export Plug-In . SVG Version: 6.00 Build 0)  -->
<svg version="1.1" id="Слой_1_2_" xmlns="http://www.w3.org/2000/svg" xmlns:xlink="http://www.w3.org/1999/xlink" x="0px"
	 y="0px" viewBox="0 0 160 160" style="enable-background:new 0 0 160 160;" xml:space="preserve">
<style type="text/css">
	.st0{fill:#00ACAA;}
	.st1{fill:#FFFFFF;}
</style>
<g>
	<g id="Эллипс">
		<g>
			<circle class="st0" cx="80" cy="80" r="80"/>
		</g>
	</g>
	<g>
		<circle class="st0" cx="54.9" cy="68" r="10"/>
		<path class="st1" d="M54.9,58c5.5,0,10,4.5,10,10s-4.5,10-10,10s-10-4.5-10-10S49.4,58,54.9,58 M54.9,57c-6.1,0-11,4.9-11,11
			s4.9,11,11,11s11-4.9,11-11S60.9,57,54.9,57L54.9,57z"/>
	</g>
	<path class="st1" d="M80,11c38,0,69,31,69,69s-31,69-69,69s-69-31-69-69S42,11,80,11 M80,10c-38.7,0-70,31.3-70,70s31.3,70,70,70
		s70-31.3,70-70S118.7,10,80,10L80,10z"/>
	<g>
		<circle class="st0" cx="75" cy="59" r="15"/>
		<path class="st1" d="M75,44c8.3,0,15,6.7,15,15s-6.7,15-15,15s-15-6.7-15-15S66.7,44,75,44 M75,43c-8.8,0-16,7.2-16,16
			s7.2,16,16,16s16-7.2,16-16S83.8,43,75,43L75,43z"/>
	</g>
	<path class="st1" d="M109.9,53.1c4.4,0,8,3.6,8,8s-3.6,8-8,8s-8-3.6-8-8S105.5,53.1,109.9,53.1 M109.9,52.1c-5,0-9,4-9,9
		c0,5,4,9,9,9s9-4,9-9C118.9,56.2,114.8,52.1,109.9,52.1L109.9,52.1z"/>
	<g id="Совмещенный_контур">
		<g>
			<path class="st1" d="M109.9,109V64h-55v45h24v5h-2v2h10v-2h-2v-5H109.9z M100.9,105h-1v-1h1V105z M103.9,105h-1v-1h1V105z
				 M106.9,105h-1v-1h1V105z M82.9,106h-2v-2h2V106z M57.9,101V67h49v34H57.9z"/>
		</g>
	</g>
	<g>
		<path class="st1" d="M50.5,63.1H52v1.5h-1.5V63.1z M50.5,65.9h1.4v5.7h-1.4V65.9z"/>
		<path class="st1" d="M54.8,66.7L54.8,66.7c0.1-0.1,0.2-0.2,0.3-0.3s0.3-0.2,0.4-0.3s0.3-0.2,0.5-0.2s0.4-0.1,0.6-0.1
			c0.2,0,0.4,0,0.6,0.1s0.4,0.1,0.5,0.2s0.3,0.2,0.4,0.4s0.2,0.3,0.3,0.6c0,0.1,0.1,0.3,0.1,0.4s0,0.3,0,0.5v3.7h-1.4v-3.5
			c0-0.2,0-0.3,0-0.4s0-0.2-0.1-0.3c-0.1-0.2-0.2-0.3-0.3-0.4S56.5,67,56.3,67c-0.3,0-0.5,0.1-0.8,0.2s-0.5,0.3-0.7,0.6v3.9h-1.4
			v-5.7h1.1L54.8,66.7z"/>
	</g>
	<rect x="57.9" y="67" class="st0" width="49" height="34"/>
	<g>
		<path class="st1" d="M76.3,86.8c0-0.2,0-0.4-0.1-0.5S75.9,86,75.7,86s-0.4-0.1-0.6-0.2s-0.4-0.1-0.7-0.1c-0.3-0.1-0.6-0.1-0.9-0.2
			s-0.5-0.2-0.7-0.4s-0.4-0.4-0.5-0.6s-0.2-0.6-0.2-0.9c0-0.4,0.1-0.8,0.2-1.1s0.3-0.6,0.6-0.8s0.5-0.4,0.9-0.5S74.6,81,75,81
			s0.8,0,1.3,0.1s0.8,0.2,1.1,0.3v1.2c-0.4-0.2-0.8-0.3-1.2-0.3s-0.7-0.1-1.1-0.1c-0.5,0-0.8,0.1-1.1,0.3s-0.4,0.4-0.4,0.8
			c0,0.2,0,0.4,0.1,0.5s0.2,0.2,0.3,0.3s0.3,0.2,0.5,0.2s0.4,0.1,0.6,0.1c0.3,0.1,0.6,0.2,1,0.2s0.6,0.2,0.8,0.4s0.4,0.4,0.6,0.6
			s0.2,0.6,0.2,1c0,0.4-0.1,0.8-0.2,1.1s-0.4,0.6-0.7,0.8s-0.6,0.4-1,0.4s-0.9,0.1-1.3,0.1c-0.4,0-0.8,0-1.3-0.1s-0.8-0.2-1-0.4
			v-1.2c0.4,0.2,0.8,0.3,1.1,0.4s0.7,0.1,1.1,0.1c0.2,0,0.4,0,0.7-0.1s0.4-0.1,0.6-0.2s0.3-0.2,0.4-0.4S76.3,87,76.3,86.8z"/>
		<path class="st1" d="M80.8,87.8h3.9V89h-5.3v-7.8h5.1v1.2h-3.6v2h3.1v1.2h-3.1V87.8z"/>
		<path class="st1" d="M93.5,85.1c0,0.6-0.1,1.1-0.3,1.6s-0.4,0.9-0.7,1.3s-0.7,0.6-1.2,0.8s-1,0.3-1.6,0.3S88.5,89,88,88.8
			s-0.9-0.5-1.2-0.8s-0.6-0.8-0.7-1.3s-0.3-1-0.3-1.6s0.1-1.1,0.3-1.6s0.4-0.9,0.7-1.3s0.7-0.6,1.2-0.8s1-0.3,1.6-0.3
			s1.1,0.1,1.6,0.3s0.9,0.5,1.2,0.8s0.6,0.8,0.7,1.3S93.5,84.5,93.5,85.1z M92,85.1c0-0.5-0.1-0.9-0.2-1.3s-0.3-0.7-0.5-0.9
			s-0.5-0.4-0.7-0.5s-0.6-0.2-0.9-0.2s-0.7,0.1-0.9,0.2s-0.5,0.3-0.7,0.5s-0.4,0.5-0.5,0.9s-0.2,0.8-0.2,1.3s0.1,0.9,0.2,1.3
			s0.3,0.7,0.5,0.9s0.5,0.4,0.7,0.5s0.6,0.2,0.9,0.2s0.7-0.1,0.9-0.2s0.5-0.3,0.7-0.5s0.4-0.5,0.5-0.9S92,85.6,92,85.1z"/>
	</g>
	<g>
		<path class="st1" d="M112.6,58.4c-0.2,0-0.3-0.1-0.5-0.1s-0.3,0-0.5,0c-0.2,0-0.3,0-0.4,0.1s-0.2,0.1-0.3,0.2s-0.1,0.2-0.2,0.3
			s-0.1,0.3-0.1,0.5v0.7h1.6v1.1h-1.6v4.5h-1.4v-4.5h-1v-1.1h1v-0.7c0-0.4,0.1-0.7,0.2-1s0.3-0.5,0.5-0.7s0.4-0.3,0.7-0.4
			s0.6-0.1,0.9-0.1c0.2,0,0.4,0,0.6,0s0.4,0.1,0.5,0.1V58.4z"/>
	</g>
	<circle class="st1" cx="75" cy="59" r="3"/>
	<path class="st1" d="M75,53c3.3,0,6,2.7,6,6s-2.7,6-6,6s-6-2.7-6-6S71.7,53,75,53 M75,52c-3.9,0-7,3.1-7,7c0,3.9,3.1,7,7,7
		s7-3.1,7-7C82,55.1,78.9,52,75,52L75,52z"/>
	<g>
		<rect x="73.4" y="49.3" transform="matrix(0.9715 -0.237 0.237 0.9715 -9.9372 18.9536)" class="st1" width="1" height="3"/>
	</g>
	<g>
		<rect x="70.6" y="50.3" transform="matrix(0.908 -0.419 0.419 0.908 -15.1597 34.5371)" class="st1" width="1" height="3"/>
	</g>
	<g>
		<rect x="68.6" y="52.2" transform="matrix(0.6374 -0.7705 0.7705 0.6374 -16.3364 72.7005)" class="st1" width="1" height="3"/>
	</g>
	<g>
		<rect x="67.1" y="54.5" transform="matrix(0.3605 -0.9328 0.9328 0.3605 -8.9981 98.9256)" class="st1" width="1" height="3"/>
	</g>
	<g>
		<rect x="66.2" y="56.9" transform="matrix(0.1815 -0.9834 0.9834 0.1815 -2.8502 113.4359)" class="st1" width="1" height="3"/>
	</g>
	<g>
		<rect x="65.8" y="60.6" transform="matrix(0.9565 -0.2917 0.2917 0.9565 -14.9086 22.2779)" class="st1" width="3" height="1"/>
	</g>
	<g>
		<rect x="66.8" y="63" transform="matrix(0.8837 -0.4681 0.4681 0.8837 -21.7774 39.3596)" class="st1" width="3" height="1"/>
	</g>
	<g>
		<rect x="75.2" y="50.3" transform="matrix(0.3605 -0.9328 0.9328 0.3605 1.6564 104.0257)" class="st1" width="3" height="1"/>
	</g>
	<g>
		<rect x="77.7" y="51.5" transform="matrix(0.5607 -0.828 0.828 0.5607 -8.2434 88.3816)" class="st1" width="3" height="1"/>
	</g>
	<g>
		<rect x="80" y="53.7" transform="matrix(0.7349 -0.6782 0.6782 0.7349 -15.1796 69.6343)" class="st1" width="3" height="1"/>
	</g>
	<g>
		<rect x="81.4" y="56.7" transform="matrix(0.9351 -0.3544 0.3544 0.9351 -14.8777 33.0847)" class="st1" width="3" height="1"/>
	</g>
	<g>
		
			<rect x="82.5" y="58.6" transform="matrix(3.742927e-02 -0.9993 0.9993 3.742927e-02 19.9037 140.8069)" class="st1" width="1" height="3"/>
	</g>
	<g>
		<rect x="81.9" y="61.1" transform="matrix(0.4065 -0.9137 0.9137 0.4065 -8.2816 112.4061)" class="st1" width="1" height="3"/>
	</g>
	<g>
		<rect x="80.4" y="62.9" transform="matrix(0.6047 -0.7965 0.7965 0.6047 -19.3365 89.8616)" class="st1" width="1" height="3"/>
	</g>
</g>
</svg>
